<?xml version="1.0" encoding="UTF-8"?>
<svg xmlns="http://www.w3.org/2000/svg" xmlns:xlink="http://www.w3.org/1999/xlink" width="512px" height="512px" viewBox="0 0 512 512" version="1.1">
<g id="surface1">
<path style=" stroke:none;fill-rule:nonzero;fill:rgb(9.019608%,10.196079%,17.254902%);fill-opacity:1;" d="M 358.429688 513.082031 C 239.261719 513.082031 120.601562 513.082031 1.933594 513.082031 C 1.933594 342.414062 1.933594 171.746094 1.933594 1.082031 C 171.980469 1.082031 342.027344 1.082031 512.074219 1.082031 C 512.074219 171.746094 512.074219 342.414062 512.074219 513.078125 C 461.027344 513.082031 409.976562 513.082031 358.429688 513.082031 M 311.546875 193.5 C 311.304688 194.105469 311.0625 194.714844 310.773438 195.316406 C 310.773438 195.316406 310.730469 195.289062 310.195312 195.683594 C 305.574219 204.171875 300.761719 212.554688 296.402344 221.195312 C 293.425781 227.097656 295.699219 234.285156 300.972656 237.5 C 306.726562 241.007812 314.121094 239.570312 317.425781 233.894531 C 320.78125 228.132812 323.835938 222.160156 326.816406 216.160156 C 330.167969 209.421875 333.285156 202.550781 336.453125 195.710938 C 336.453125 195.710938 336.488281 195.742188 337.128906 195.601562 C 337.835938 194.492188 338.546875 193.386719 339.683594 191.75 C 340.246094 190.5 340.8125 189.253906 341.90625 187.546875 C 351.117188 170.046875 360.328125 152.546875 370.042969 134.566406 C 371.480469 131.953125 373.101562 129.429688 374.316406 126.703125 C 377.335938 119.90625 375.140625 112.964844 368.992188 109.242188 C 363.605469 105.988281 356.230469 108.050781 352.84375 114.082031 C 350.707031 117.894531 349.042969 122.011719 346.632812 126.464844 C 337.605469 143.714844 328.585938 160.96875 319.066406 178.769531 C 317.089844 182.808594 315.113281 186.851562 312.613281 191.320312 C 312.402344 191.976562 312.191406 192.636719 312.113281 193.261719 C 312.113281 193.261719 312.070312 193.128906 311.546875 193.5 M 337.589844 337.011719 C 337.230469 337.738281 336.871094 338.460938 336.253906 339.441406 C 336.253906 339.441406 336.167969 339.800781 335.628906 340.132812 C 335.261719 340.898438 334.894531 341.664062 334.066406 342.988281 C 332.492188 346.066406 330.917969 349.148438 328.828125 352.550781 C 328.636719 353.136719 328.445312 353.722656 328.097656 354.597656 C 328.097656 354.597656 328.132812 354.929688 327.636719 355.292969 C 327.402344 356.050781 327.167969 356.804688 326.5625 358.164062 C 326.410156 358.863281 326.253906 359.558594 325.566406 360.761719 C 324.746094 363.65625 323.925781 366.546875 322.789062 370.113281 C 322.722656 370.613281 322.65625 371.109375 322.117188 372.179688 C 321.792969 374.152344 321.472656 376.121094 320.773438 378.832031 C 320.652344 379.660156 320.527344 380.488281 320.054688 381.855469 C 320.066406 383.132812 320.078125 384.410156 319.921875 386.199219 C 319.96875 386.554688 320.011719 386.910156 319.449219 387.527344 C 319.050781 387.699219 318.652344 387.871094 317.945312 387.75 C 317.945312 387.75 317.550781 387.628906 317.246094 386.96875 C 313.886719 384.492188 310.53125 382.015625 306.671875 379.011719 C 305.230469 378.195312 303.785156 377.382812 301.996094 375.988281 C 290.34375 370.871094 278.6875 365.75 266.707031 360.300781 C 266.707031 360.300781 266.277344 360.15625 265.929688 359.703125 C 265.285156 359.386719 264.632812 359.066406 263.550781 358.230469 C 262.371094 357.640625 261.191406 357.046875 259.710938 355.871094 C 258.808594 355.347656 257.902344 354.824219 256.457031 353.867188 C 249.054688 348.476562 241.429688 343.394531 234.3125 337.59375 C 228.238281 332.640625 222.742188 326.859375 216.78125 320.839844 C 216.050781 320.136719 215.320312 319.433594 214.414062 318.117188 C 213.527344 317.28125 212.640625 316.449219 211.484375 314.941406 C 195.511719 297.519531 179.542969 280.097656 163.292969 262.058594 C 162.375 261.117188 161.453125 260.179688 160.253906 258.597656 C 157.710938 255.878906 155.171875 253.160156 152.457031 249.972656 C 152.265625 249.675781 152 249.515625 151.433594 248.925781 C 151.121094 248.703125 150.808594 248.484375 150.21875 247.632812 C 143.648438 240.695312 137.074219 233.757812 130.183594 226.175781 C 129.636719 225.777344 129.007812 225.464844 128.5625 224.960938 C 117.777344 212.753906 107 200.539062 96.25 188.289062 C 91.382812 182.738281 84.125 182.351562 78.820312 187.449219 C 73.855469 192.230469 73.453125 200.988281 78.09375 206.316406 C 81.289062 209.980469 84.652344 213.476562 87.96875 217.015625 C 96.90625 226.5625 105.863281 236.09375 114.84375 245.609375 C 114.84375 245.609375 114.878906 245.609375 114.984375 246.261719 C 115.445312 246.6875 115.898438 247.113281 116.601562 248.1875 C 118.453125 250.109375 120.308594 252.035156 122.460938 254.597656 C 123.410156 255.570312 124.355469 256.542969 125.585938 258.113281 C 127.089844 259.617188 128.601562 261.121094 130.394531 263.289062 C 132.035156 264.941406 133.679688 266.589844 135.472656 268.796875 C 136.011719 269.273438 136.550781 269.75 137.34375 270.921875 C 143.410156 277.558594 149.445312 284.234375 155.554688 290.824219 C 167.539062 303.746094 179.558594 316.621094 191.78125 330.136719 C 192.417969 330.660156 193.050781 331.1875 193.71875 331.636719 C 193.71875 331.636719 193.648438 331.675781 193.925781 332.335938 C 202.933594 341.003906 211.941406 349.671875 221.269531 358.871094 C 221.769531 359.164062 222.269531 359.460938 223.128906 360.34375 C 224.164062 361.199219 225.199219 362.054688 226.425781 363.800781 C 225.230469 364.734375 224.140625 365.914062 222.820312 366.550781 C 216.476562 369.621094 210.070312 372.542969 202.957031 375.644531 C 197.117188 379.535156 191.28125 383.429688 185.21875 387.472656 C 184.808594 386.574219 184.324219 385.523438 183.9375 383.566406 C 183.6875 382.089844 183.4375 380.613281 183.269531 378.558594 C 183.03125 378.054688 182.796875 377.546875 182.632812 376.152344 C 180.960938 363.710938 176.5 352.527344 169.410156 341.75 C 163.652344 334.378906 158.046875 326.859375 152.078125 319.6875 C 147.183594 313.804688 139.160156 313.613281 134.277344 318.78125 C 129.65625 323.671875 129.925781 332.097656 134.429688 337.78125 C 140.667969 345.652344 146.605469 353.796875 152.800781 362.589844 C 155.445312 371.691406 158.082031 380.792969 160.632812 390.90625 C 160.976562 403.351562 160.671875 415.652344 156.917969 427.691406 C 154.785156 434.523438 157.855469 440.925781 163.40625 443.410156 C 169.515625 446.140625 176.222656 443.449219 179.542969 436.699219 C 185.007812 425.578125 191.90625 415.570312 201.28125 408.105469 C 208.203125 402.589844 216.042969 398.402344 224.117188 393.617188 C 224.699219 393.34375 225.285156 393.074219 226.621094 392.8125 C 229.714844 391.84375 232.8125 390.878906 236.738281 389.910156 C 245.484375 389.617188 254.238281 388.964844 262.972656 389.179688 C 267.375 389.285156 271.746094 390.957031 276.679688 392.414062 C 278.402344 393.09375 280.164062 393.679688 281.847656 394.460938 C 300.785156 403.222656 315.46875 416.9375 324.710938 437.027344 C 327.460938 443.003906 334.277344 445.726562 340.097656 443.398438 C 345.601562 441.199219 349.554688 434.425781 347.570312 428.71875 C 343.175781 416.082031 343.027344 403.042969 343.34375 389.40625 C 343.34375 389.40625 343.285156 388.886719 343.550781 388.109375 C 343.871094 385.699219 344.191406 383.289062 345.082031 380.285156 C 347.839844 369.476562 351.878906 359.285156 358.414062 350.488281 C 361.832031 345.882812 365.8125 341.765625 369.515625 337.402344 C 374.34375 331.71875 374.453125 323.824219 369.800781 319.023438 C 364.683594 313.746094 357.613281 313.824219 352.390625 319.296875 C 350.96875 320.785156 349.71875 322.46875 347.796875 324.335938 C 347.144531 325.246094 346.5 326.15625 345.265625 327.335938 C 343.613281 329.449219 341.964844 331.558594 339.757812 333.992188 C 339.199219 334.925781 338.644531 335.859375 338.21875 336.902344 C 338.21875 336.902344 338.132812 336.75 337.589844 337.011719 M 239.976562 76.738281 C 239.976562 76.738281 239.792969 76.679688 239.351562 77.347656 C 238.875 86.210938 238.027344 95.074219 238.015625 103.9375 C 237.992188 116.605469 238.855469 129.273438 238.839844 141.941406 C 238.824219 156.210938 238.214844 170.476562 237.945312 184.746094 C 237.828125 191 237.792969 197.257812 238.015625 203.503906 C 238.074219 205.179688 239.199219 206.8125 239.996094 209.289062 C 241.199219 216.851562 246.140625 221.613281 252.441406 221.277344 C 258.445312 220.960938 263.820312 215.691406 263.859375 209.285156 C 263.957031 191.367188 263.757812 173.445312 263.839844 154.53125 C 263.800781 140.460938 263.761719 126.390625 263.890625 111.324219 C 263.859375 99.769531 263.820312 88.210938 263.921875 76.15625 C 263.921875 76.15625 263.792969 75.65625 263.90625 74.851562 C 263.144531 68.964844 260.261719 64.8125 254.804688 63.566406 C 249.519531 62.359375 245.011719 64.144531 241.460938 69.691406 C 241.226562 70.558594 240.988281 71.429688 240.300781 72.828125 C 240.242188 73.757812 240.1875 74.691406 240.015625 76.179688 C 240.066406 76.363281 240.117188 76.542969 239.976562 76.738281 M 387.257812 247.097656 C 399.757812 233.632812 412.289062 220.207031 424.734375 206.6875 C 429.878906 201.09375 429.890625 193.195312 424.984375 187.894531 C 419.875 182.378906 412.449219 182.496094 407.226562 188.363281 C 400.445312 195.988281 393.785156 203.734375 386.5625 211.609375 C 386.132812 212.199219 385.707031 212.785156 384.847656 213.585938 C 384.582031 213.804688 384.429688 214.089844 383.804688 214.714844 C 383.113281 215.539062 382.425781 216.359375 381.160156 217.441406 C 380.628906 218.113281 380.101562 218.785156 378.992188 219.648438 C 378.214844 220.605469 377.4375 221.5625 376.144531 222.898438 C 375.214844 224.054688 374.285156 225.214844 372.710938 226.671875 C 371.128906 228.46875 369.542969 230.261719 367.621094 232.140625 C 367.402344 232.277344 367.289062 232.480469 366.667969 233.113281 C 357.359375 243.152344 347.976562 253.109375 338.777344 263.261719 C 334.164062 268.355469 334.445312 277.03125 339.03125 281.777344 C 343.683594 286.585938 350.980469 287 355.347656 282.230469 C 365.886719 270.730469 376.230469 259.027344 387.257812 247.097656 M 237.148438 322.3125 C 248.203125 326.914062 259.257812 326.882812 269.628906 320.660156 C 283.441406 312.371094 289.359375 298.972656 288.113281 282.292969 C 286.96875 266.976562 279.148438 256.117188 266.203125 250.023438 C 252.089844 243.375 238.859375 246.171875 227.433594 256.882812 C 209.558594 273.640625 210.832031 308.140625 237.148438 322.3125 M 183.761719 228.507812 C 185.796875 231.503906 187.34375 235.1875 189.972656 237.347656 C 194.453125 241.039062 201.597656 239.679688 205.578125 235.308594 C 209.671875 230.816406 209.785156 225.144531 206.023438 218.027344 C 191.171875 189.949219 176.347656 161.851562 161.507812 133.769531 C 158.132812 127.378906 154.773438 120.96875 151.289062 114.644531 C 148.4375 109.453125 143.253906 106.867188 138.15625 107.828125 C 133.71875 108.664062 129.003906 113.269531 128.78125 118.464844 C 128.621094 122.183594 129.398438 126.464844 131.097656 129.683594 C 148.390625 162.484375 165.953125 195.117188 183.761719 228.507812 Z M 183.761719 228.507812 "/>
<path style=" stroke:none;fill-rule:nonzero;fill:rgb(36.470589%,73.333335%,62.7451%);fill-opacity:1;" d="M 236.796875 322.152344 C 210.832031 308.140625 209.558594 273.640625 227.433594 256.882812 C 238.859375 246.171875 252.089844 243.375 266.203125 250.023438 C 279.148438 256.117188 286.96875 266.976562 288.113281 282.292969 C 289.359375 298.972656 283.441406 312.371094 269.628906 320.660156 C 259.257812 326.882812 248.203125 326.914062 236.796875 322.152344 Z M 236.796875 322.152344 "/>
<path style=" stroke:none;fill-rule:nonzero;fill:rgb(85.882354%,97.647059%,90.980393%);fill-opacity:1;" d="M 183.605469 228.152344 C 165.953125 195.117188 148.390625 162.484375 131.097656 129.683594 C 129.398438 126.464844 128.621094 122.183594 128.78125 118.464844 C 129.003906 113.269531 133.71875 108.664062 138.15625 107.828125 C 143.253906 106.867188 148.4375 109.453125 151.289062 114.644531 C 154.773438 120.96875 158.132812 127.378906 161.507812 133.769531 C 176.347656 161.851562 191.171875 189.949219 206.023438 218.027344 C 209.785156 225.144531 209.671875 230.816406 205.578125 235.308594 C 201.597656 239.679688 194.453125 241.039062 189.972656 237.347656 C 187.34375 235.1875 185.796875 231.503906 183.605469 228.152344 Z M 183.605469 228.152344 "/>
<path style=" stroke:none;fill-rule:nonzero;fill:rgb(30.588236%,65.882355%,66.274512%);fill-opacity:1;" d="M 302.34375 376.566406 C 303.785156 377.382812 305.230469 378.195312 306.929688 379.65625 C 309.160156 385.175781 312.734375 387.417969 317.550781 387.628906 C 317.550781 387.628906 317.945312 387.75 318.179688 388.179688 C 318.957031 388.164062 319.503906 387.714844 320.054688 387.265625 C 320.011719 386.910156 319.96875 386.554688 320.273438 385.671875 C 320.851562 383.859375 321.085938 382.582031 321.621094 381.21875 C 322.03125 380.109375 322.148438 379.082031 322.285156 377.636719 C 322.65625 375.347656 323.011719 373.46875 323.761719 371.589844 C 327.078125 372.707031 329.964844 373.890625 332.902344 374.921875 C 334.484375 375.476562 336.3125 376.453125 337.75 376.054688 C 343.609375 374.421875 343.867188 374.464844 344.511719 380.875 C 344.191406 383.289062 343.871094 385.699219 343.300781 388.59375 C 342.871094 389.378906 342.914062 389.648438 343.171875 389.898438 C 343.027344 403.042969 343.175781 416.082031 347.570312 428.71875 C 349.554688 434.425781 345.601562 441.199219 340.097656 443.398438 C 334.277344 445.726562 327.460938 443.003906 324.710938 437.027344 C 315.46875 416.9375 300.785156 403.222656 281.847656 394.460938 C 280.164062 393.679688 278.402344 393.09375 276.414062 391.757812 C 277.074219 390.027344 278.023438 388.003906 278.914062 388.03125 C 284.425781 388.207031 287.785156 384.882812 290.3125 380.480469 C 292.824219 381.769531 294.925781 383.296875 297.230469 383.863281 C 298.722656 384.230469 300.769531 383.574219 302.042969 382.589844 C 302.523438 382.21875 301.519531 379.625 301.425781 377.84375 C 301.890625 377.28125 302.117188 376.925781 302.34375 376.566406 Z M 302.34375 376.566406 "/>
<path style=" stroke:none;fill-rule:nonzero;fill:rgb(30.588236%,65.490198%,65.882355%);fill-opacity:1;" d="M 223.476562 393.621094 C 216.042969 398.402344 208.203125 402.589844 201.28125 408.105469 C 191.90625 415.570312 185.007812 425.578125 179.542969 436.699219 C 176.222656 443.449219 169.515625 446.140625 163.40625 443.410156 C 157.855469 440.925781 154.785156 434.523438 156.917969 427.691406 C 160.671875 415.652344 160.976562 403.351562 160.867188 390.160156 C 161.390625 388.613281 161.671875 387.808594 161.96875 386.980469 C 166.210938 391.296875 173.882812 392.539062 177.148438 389.648438 C 179.265625 387.773438 181.605469 386.183594 183.839844 384.46875 C 184.324219 385.523438 184.808594 386.574219 185.21875 387.472656 C 191.28125 383.429688 197.117188 379.535156 203.359375 376.015625 C 205.832031 377.691406 207.777344 379.726562 209.988281 380.148438 C 215.132812 381.132812 218.394531 384.125 220.613281 388.972656 C 221.371094 390.628906 222.511719 392.078125 223.476562 393.621094 Z M 223.476562 393.621094 "/>
<path style=" stroke:none;fill-rule:nonzero;fill:rgb(32.156864%,68.235296%,64.313728%);fill-opacity:1;" d="M 223.796875 393.617188 C 222.511719 392.078125 221.371094 390.628906 220.613281 388.972656 C 218.394531 384.125 215.132812 381.132812 209.988281 380.148438 C 207.777344 379.726562 205.832031 377.691406 203.722656 375.953125 C 210.070312 372.542969 216.476562 369.621094 222.820312 366.550781 C 224.140625 365.914062 225.230469 364.734375 226.675781 363.339844 C 228.007812 361.707031 229.367188 360.710938 230.097656 359.332031 C 232.371094 355.066406 233.785156 354.796875 237.226562 357.839844 C 238.382812 358.859375 240.238281 359.785156 241.605469 359.566406 C 246.449219 358.804688 251.214844 357.523438 256.300781 356.585938 C 257.734375 356.640625 258.875 356.546875 260.019531 356.457031 C 261.191406 357.046875 262.371094 357.640625 263.789062 358.835938 C 264.777344 359.679688 265.527344 359.917969 266.277344 360.15625 C 266.277344 360.15625 266.707031 360.300781 267.03125 360.804688 C 269.46875 362.9375 271.390625 365.054688 273.722656 366.121094 C 282.808594 370.277344 292.023438 374.101562 301.1875 378.046875 C 301.519531 379.625 302.523438 382.21875 302.042969 382.589844 C 300.769531 383.574219 298.722656 384.230469 297.230469 383.863281 C 294.925781 383.296875 292.824219 381.769531 290.3125 380.480469 C 287.785156 384.882812 284.425781 388.207031 278.914062 388.03125 C 278.023438 388.003906 277.074219 390.027344 276.136719 391.511719 C 271.746094 390.957031 267.375 389.285156 262.972656 389.179688 C 254.238281 388.964844 245.484375 389.617188 236.03125 389.65625 C 231.652344 388.851562 228.050781 388.550781 225.867188 392.804688 C 225.285156 393.074219 224.699219 393.34375 223.796875 393.617188 Z M 223.796875 393.617188 "/>
<path style=" stroke:none;fill-rule:nonzero;fill:rgb(35.686275%,72.156864%,62.352943%);fill-opacity:1;" d="M 191.566406 329.515625 C 179.558594 316.621094 167.539062 303.746094 155.554688 290.824219 C 149.445312 284.234375 143.410156 277.558594 137.597656 270.574219 C 142.34375 273.398438 146.699219 273.699219 150.710938 268.597656 C 151.894531 270.75 152.675781 272.167969 153.457031 273.59375 C 157.023438 269.984375 166.457031 272.902344 163.570312 262.675781 C 179.542969 280.097656 195.511719 297.519531 211.652344 315.640625 C 212.742188 317.132812 213.664062 317.933594 214.589844 318.730469 C 215.320312 319.433594 216.050781 320.136719 216.796875 321.566406 C 215.433594 323.324219 214.175781 324.734375 212.648438 325.3125 C 209.082031 326.660156 204.347656 326.492188 202.011719 329.007812 C 199.203125 332.023438 196.578125 331.421875 193.648438 331.675781 C 193.648438 331.675781 193.71875 331.636719 193.648438 331.324219 C 192.90625 330.511719 192.238281 330.015625 191.566406 329.515625 Z M 191.566406 329.515625 "/>
<path style=" stroke:none;fill-rule:nonzero;fill:rgb(37.64706%,73.333335%,61.56863%);fill-opacity:1;" d="M 384.386719 214.445312 C 384.429688 214.089844 384.582031 213.804688 385.257812 213.757812 C 386.34375 213.914062 387.019531 213.898438 387.695312 213.882812 C 387.488281 213.0625 387.28125 212.246094 387.074219 211.425781 C 393.785156 203.734375 400.445312 195.988281 407.226562 188.363281 C 412.449219 182.496094 419.875 182.378906 424.984375 187.894531 C 429.890625 193.195312 429.878906 201.09375 424.734375 206.6875 C 412.289062 220.207031 399.757812 233.632812 386.570312 247.175781 C 382.585938 246.472656 379.574219 245.597656 378.441406 241.28125 C 378.128906 240.078125 375.542969 238.804688 374.046875 238.867188 C 369.8125 239.042969 367.871094 236.917969 367.285156 232.75 C 367.289062 232.480469 367.402344 232.277344 368.199219 232.128906 C 372.386719 232.125 373.09375 229.457031 373.351562 226.375 C 374.285156 225.214844 375.214844 224.054688 376.742188 222.6875 C 378.078125 221.472656 378.824219 220.464844 379.570312 219.457031 C 380.101562 218.785156 380.628906 218.113281 381.800781 217.269531 C 383.089844 216.210938 383.738281 215.328125 384.386719 214.445312 Z M 384.386719 214.445312 "/>
<path style=" stroke:none;fill-rule:nonzero;fill:rgb(40.000001%,76.078433%,61.960787%);fill-opacity:1;" d="M 114.8125 245.628906 C 105.863281 236.09375 96.90625 226.5625 87.96875 217.015625 C 84.652344 213.476562 81.289062 209.980469 78.09375 206.316406 C 73.453125 200.988281 73.855469 192.230469 78.820312 187.449219 C 84.125 182.351562 91.382812 182.738281 96.25 188.289062 C 107 200.539062 117.777344 212.753906 128.5625 224.960938 C 129.007812 225.464844 129.636719 225.777344 130.042969 226.679688 C 125.789062 231.882812 121.632812 236.539062 117.582031 241.304688 C 116.496094 242.585938 115.722656 244.179688 114.8125 245.628906 Z M 114.8125 245.628906 "/>
<path style=" stroke:none;fill-rule:nonzero;fill:rgb(31.764707%,67.058825%,62.7451%);fill-opacity:1;" d="M 344.800781 380.582031 C 343.867188 374.464844 343.609375 374.421875 337.75 376.054688 C 336.3125 376.453125 334.484375 375.476562 332.902344 374.921875 C 329.964844 373.890625 327.078125 372.707031 323.570312 371.582031 C 322.972656 371.578125 322.589844 371.605469 322.589844 371.605469 C 322.65625 371.109375 322.722656 370.613281 323.203125 369.589844 C 324.445312 366.128906 325.273438 363.191406 326.101562 360.253906 C 326.253906 359.558594 326.410156 358.863281 327.003906 357.710938 C 327.671875 356.480469 327.902344 355.707031 328.132812 354.929688 C 328.132812 354.929688 328.097656 354.597656 328.394531 354.257812 C 328.914062 353.351562 329.128906 352.789062 329.34375 352.226562 C 330.917969 349.148438 332.492188 346.066406 334.605469 342.597656 C 335.488281 341.40625 335.824219 340.601562 336.167969 339.800781 C 336.167969 339.800781 336.253906 339.441406 336.683594 339.21875 C 337.449219 338.25 337.789062 337.5 338.132812 336.75 C 338.132812 336.75 338.21875 336.902344 338.511719 336.828125 C 339.308594 335.726562 339.8125 334.699219 340.308594 333.667969 C 341.964844 331.558594 343.613281 329.449219 345.929688 327.191406 C 347.195312 326.054688 347.792969 325.058594 348.394531 324.0625 C 349.71875 322.46875 350.96875 320.785156 352.390625 319.296875 C 357.613281 313.824219 364.683594 313.746094 369.800781 319.023438 C 374.453125 323.824219 374.34375 331.71875 369.515625 337.402344 C 365.8125 341.765625 361.832031 345.882812 358.414062 350.488281 C 351.878906 359.285156 347.839844 369.476562 344.800781 380.582031 Z M 344.800781 380.582031 "/>
<path style=" stroke:none;fill-rule:nonzero;fill:rgb(35.294119%,71.372551%,61.176473%);fill-opacity:1;" d="M 366.972656 232.929688 C 367.871094 236.917969 369.8125 239.042969 374.046875 238.867188 C 375.542969 238.804688 378.128906 240.078125 378.441406 241.28125 C 379.574219 245.597656 382.585938 246.472656 386.269531 247.328125 C 376.230469 259.027344 365.886719 270.730469 355.347656 282.230469 C 350.980469 287 343.683594 286.585938 339.03125 281.777344 C 334.445312 277.03125 334.164062 268.355469 338.777344 263.261719 C 347.976562 253.109375 357.359375 243.152344 366.972656 232.929688 Z M 366.972656 232.929688 "/>
<path style=" stroke:none;fill-rule:nonzero;fill:rgb(47.843137%,81.568629%,58.431375%);fill-opacity:1;" d="M 263.785156 76.65625 C 263.820312 88.210938 263.859375 99.769531 263.453125 111.859375 C 262.273438 113.441406 261.65625 114.636719 260.757812 115.496094 C 259.476562 116.71875 258.125 118.191406 256.566406 118.683594 C 251.203125 120.371094 245.734375 121.675781 240.222656 122.628906 C 240.027344 106.980469 239.910156 91.832031 239.792969 76.679688 C 239.792969 76.679688 239.976562 76.738281 240.179688 76.609375 C 240.503906 76.132812 240.421875 75.847656 240.132812 75.625 C 240.1875 74.691406 240.242188 73.757812 240.789062 72.363281 C 241.507812 71.023438 241.746094 70.15625 241.980469 69.285156 C 245.011719 64.144531 249.519531 62.359375 254.804688 63.566406 C 260.261719 64.8125 263.144531 68.964844 263.742188 75.355469 C 263.4375 76.179688 263.507812 76.445312 263.785156 76.65625 Z M 263.785156 76.65625 "/>
<path style=" stroke:none;fill-rule:nonzero;fill:rgb(42.745098%,77.254903%,60.392159%);fill-opacity:1;" d="M 369.535156 135.046875 C 360.328125 152.546875 351.117188 170.046875 341.640625 187.351562 C 342.308594 184.121094 343.242188 181.082031 344.257812 177.789062 C 339.414062 176.414062 336.496094 179.023438 333.394531 181.378906 C 328.597656 185.027344 327.085938 184.511719 323.613281 179.398438 C 322.972656 178.453125 320.949219 178.585938 319.5625 178.21875 C 328.585938 160.96875 337.605469 143.714844 347.070312 126.609375 C 347.449219 128.59375 348.078125 131.019531 347.21875 132.167969 C 343.230469 137.511719 347.722656 139.019531 350.5 141.097656 C 353.359375 143.246094 359.214844 142.136719 360.03125 139.03125 C 361.691406 132.75 365.824219 134.8125 369.535156 135.046875 Z M 369.535156 135.046875 "/>
<path style=" stroke:none;fill-rule:nonzero;fill:rgb(44.313726%,79.607844%,59.607846%);fill-opacity:1;" d="M 240.304688 123.128906 C 245.734375 121.675781 251.203125 120.371094 256.566406 118.683594 C 258.125 118.191406 259.476562 116.71875 260.757812 115.496094 C 261.65625 114.636719 262.273438 113.441406 263.367188 112.359375 C 263.761719 126.390625 263.800781 140.460938 263.421875 155.214844 C 262.707031 156.511719 262.226562 157.097656 262.144531 157.742188 C 261.613281 162.042969 262.5625 168.210938 260.324219 170.152344 C 257.941406 172.210938 252.535156 169.882812 248.5 170.191406 C 245.257812 170.441406 242.339844 170.902344 240.289062 166.910156 C 240.238281 151.984375 240.273438 137.554688 240.304688 123.128906 Z M 240.304688 123.128906 "/>
<path style=" stroke:none;fill-rule:nonzero;fill:rgb(40.392157%,73.725492%,59.215689%);fill-opacity:1;" d="M 240.371094 167.40625 C 242.339844 170.902344 245.257812 170.441406 248.5 170.191406 C 252.535156 169.882812 257.941406 172.210938 260.324219 170.152344 C 262.5625 168.210938 261.613281 162.042969 262.144531 157.742188 C 262.226562 157.097656 262.707031 156.511719 263.339844 155.710938 C 263.757812 173.445312 263.957031 191.367188 263.859375 209.285156 C 263.820312 215.691406 258.445312 220.960938 252.441406 221.277344 C 246.140625 221.613281 241.199219 216.851562 239.996094 208.378906 C 240.121094 194.113281 240.242188 180.761719 240.371094 167.40625 Z M 240.371094 167.40625 "/>
<path style=" stroke:none;fill-rule:nonzero;fill:rgb(33.725491%,69.803923%,62.352943%);fill-opacity:1;" d="M 193.785156 332.007812 C 196.578125 331.421875 199.203125 332.023438 202.011719 329.007812 C 204.347656 326.492188 209.082031 326.660156 212.648438 325.3125 C 214.175781 324.734375 215.433594 323.324219 216.898438 321.867188 C 222.742188 326.859375 228.238281 332.640625 234.3125 337.59375 C 241.429688 343.394531 249.054688 348.476562 256.617188 354.359375 C 256.519531 355.382812 256.265625 355.910156 256.011719 356.441406 C 251.214844 357.523438 246.449219 358.804688 241.605469 359.566406 C 240.238281 359.785156 238.382812 358.859375 237.226562 357.839844 C 233.785156 354.796875 232.371094 355.066406 230.097656 359.332031 C 229.367188 360.710938 228.007812 361.707031 226.585938 362.894531 C 225.199219 362.054688 224.164062 361.199219 223.136719 359.851562 C 222.414062 359.019531 221.683594 358.679688 220.953125 358.339844 C 211.941406 349.671875 202.933594 341.003906 193.785156 332.007812 Z M 193.785156 332.007812 "/>
<path style=" stroke:none;fill-rule:nonzero;fill:rgb(38.039216%,74.901962%,62.352943%);fill-opacity:1;" d="M 114.824219 245.617188 C 115.722656 244.179688 116.496094 242.585938 117.582031 241.304688 C 121.632812 236.539062 125.789062 231.882812 130.203125 227.003906 C 137.074219 233.757812 143.648438 240.695312 150.503906 248.203125 C 151.085938 249.007812 151.375 249.246094 151.664062 249.484375 C 152 249.515625 152.265625 249.675781 152.527344 250.664062 C 151.660156 258.152344 156.261719 258.503906 160.535156 259.242188 C 161.453125 260.179688 162.375 261.117188 163.433594 262.367188 C 166.457031 272.902344 157.023438 269.984375 153.457031 273.59375 C 152.675781 272.167969 151.894531 270.75 150.710938 268.597656 C 146.699219 273.699219 142.34375 273.398438 137.46875 270.226562 C 136.550781 269.75 136.011719 269.273438 135.558594 268.136719 C 137.378906 261.128906 133.042969 262.800781 130.105469 262.625 C 128.601562 261.121094 127.089844 259.617188 125.460938 257.378906 C 124.28125 255.75 123.222656 254.855469 122.164062 253.960938 C 120.308594 252.035156 118.453125 250.109375 116.433594 247.515625 C 115.804688 246.433594 115.34375 246.019531 114.878906 245.609375 C 114.878906 245.609375 114.84375 245.609375 114.824219 245.617188 Z M 114.824219 245.617188 "/>
<path style=" stroke:none;fill-rule:nonzero;fill:rgb(32.156864%,68.627453%,63.921571%);fill-opacity:1;" d="M 183.890625 384.015625 C 181.605469 386.183594 179.265625 387.773438 177.148438 389.648438 C 173.882812 392.539062 166.210938 391.296875 161.96875 386.980469 C 161.671875 387.808594 161.390625 388.613281 160.917969 389.65625 C 158.082031 380.792969 155.445312 371.691406 153.054688 362.148438 C 157.058594 359.710938 154.050781 358.480469 153.082031 356.582031 C 152.121094 354.695312 151.796875 352.179688 151.996094 350.03125 C 152.054688 349.402344 154.886719 348.640625 156.425781 348.691406 C 161.046875 348.84375 165.65625 349.363281 170.320312 349.746094 C 169.96875 346.515625 169.75 344.492188 169.527344 342.472656 C 176.5 352.527344 180.960938 363.710938 182.441406 376.773438 C 182.554688 377.980469 182.871094 378.558594 183.183594 379.140625 C 183.4375 380.613281 183.6875 382.089844 183.890625 384.015625 Z M 183.890625 384.015625 "/>
<path style=" stroke:none;fill-rule:nonzero;fill:rgb(34.117648%,70.588237%,62.7451%);fill-opacity:1;" d="M 169.46875 342.109375 C 169.75 344.492188 169.96875 346.515625 170.320312 349.746094 C 165.65625 349.363281 161.046875 348.84375 156.425781 348.691406 C 154.886719 348.640625 152.054688 349.402344 151.996094 350.03125 C 151.796875 352.179688 152.121094 354.695312 153.082031 356.582031 C 154.050781 358.480469 157.058594 359.710938 152.992188 361.765625 C 146.605469 353.796875 140.667969 345.652344 134.429688 337.78125 C 129.925781 332.097656 129.65625 323.671875 134.277344 318.78125 C 139.160156 313.613281 147.183594 313.804688 152.078125 319.6875 C 158.046875 326.859375 163.652344 334.378906 169.46875 342.109375 Z M 169.46875 342.109375 "/>
<path style=" stroke:none;fill-rule:nonzero;fill:rgb(39.607844%,75.294119%,63.137257%);fill-opacity:1;" d="M 336.503906 195.738281 C 333.285156 202.550781 330.167969 209.421875 326.816406 216.160156 C 323.835938 222.160156 320.78125 228.132812 317.425781 233.894531 C 314.121094 239.570312 306.726562 241.007812 300.972656 237.5 C 295.699219 234.285156 293.425781 227.097656 296.402344 221.195312 C 300.761719 212.554688 305.574219 204.171875 310.585938 195.960938 C 311.714844 206.023438 313.820312 208.792969 320.324219 207.125 C 322.917969 206.460938 325.691406 204.121094 327.207031 201.695312 C 329.578125 197.90625 332.480469 196.058594 336.503906 195.738281 Z M 336.503906 195.738281 "/>
<path style=" stroke:none;fill-rule:nonzero;fill:rgb(45.09804%,78.823531%,59.215689%);fill-opacity:1;" d="M 369.789062 134.808594 C 365.824219 134.8125 361.691406 132.75 360.03125 139.03125 C 359.214844 142.136719 353.359375 143.246094 350.5 141.097656 C 347.722656 139.019531 343.230469 137.511719 347.21875 132.167969 C 348.078125 131.019531 347.449219 128.59375 347.335938 126.375 C 349.042969 122.011719 350.707031 117.894531 352.84375 114.082031 C 356.230469 108.050781 363.605469 105.988281 368.992188 109.242188 C 375.140625 112.964844 377.335938 119.90625 374.316406 126.703125 C 373.101562 129.429688 371.480469 131.953125 369.789062 134.808594 Z M 369.789062 134.808594 "/>
<path style=" stroke:none;fill-rule:nonzero;fill:rgb(40.392157%,76.47059%,60.784316%);fill-opacity:1;" d="M 336.480469 195.726562 C 332.480469 196.058594 329.578125 197.90625 327.207031 201.695312 C 325.691406 204.121094 322.917969 206.460938 320.324219 207.125 C 313.820312 208.792969 311.714844 206.023438 310.855469 195.765625 C 310.730469 195.289062 310.773438 195.316406 311.097656 195.171875 C 311.636719 194.394531 311.851562 193.761719 312.070312 193.128906 C 312.070312 193.128906 312.113281 193.261719 312.320312 193.066406 C 312.730469 192.214844 312.933594 191.550781 313.136719 190.890625 C 315.113281 186.851562 317.089844 182.808594 319.3125 178.496094 C 320.949219 178.585938 322.972656 178.453125 323.613281 179.398438 C 327.085938 184.511719 328.597656 185.027344 333.394531 181.378906 C 336.496094 179.023438 339.414062 176.414062 344.257812 177.789062 C 343.242188 181.082031 342.308594 184.121094 341.375 187.582031 C 340.8125 189.253906 340.246094 190.5 339.132812 192.082031 C 337.886719 193.523438 337.183594 194.632812 336.488281 195.742188 C 336.488281 195.742188 336.453125 195.710938 336.480469 195.726562 Z M 336.480469 195.726562 "/>
<path style=" stroke:none;fill-rule:nonzero;fill:rgb(5.490196%,14.117648%,12.941177%);fill-opacity:1;" d="M 240.289062 166.910156 C 240.242188 180.761719 240.121094 194.113281 239.917969 207.96875 C 239.199219 206.8125 238.074219 205.179688 238.015625 203.503906 C 237.792969 197.257812 237.828125 191 237.945312 184.746094 C 238.214844 170.476562 238.824219 156.210938 238.839844 141.941406 C 238.855469 129.273438 237.992188 116.605469 238.015625 103.9375 C 238.027344 95.074219 238.875 86.210938 239.574219 77.015625 C 239.910156 91.832031 240.027344 106.980469 240.222656 122.628906 C 240.273438 137.554688 240.238281 151.984375 240.289062 166.910156 Z M 240.289062 166.910156 "/>
<path style=" stroke:none;fill-rule:nonzero;fill:rgb(29.803923%,61.56863%,58.823532%);fill-opacity:1;" d="M 301.425781 377.84375 C 292.023438 374.101562 282.808594 370.277344 273.722656 366.121094 C 271.390625 365.054688 269.46875 362.9375 267.195312 360.96875 C 278.6875 365.75 290.34375 370.871094 302.167969 376.277344 C 302.117188 376.925781 301.890625 377.28125 301.425781 377.84375 Z M 301.425781 377.84375 "/>
<path style=" stroke:none;fill-rule:nonzero;fill:rgb(29.803923%,61.56863%,58.823532%);fill-opacity:1;" d="M 317.398438 387.296875 C 312.734375 387.417969 309.160156 385.175781 307.183594 379.921875 C 310.53125 382.015625 313.886719 384.492188 317.398438 387.296875 Z M 317.398438 387.296875 "/>
<path style=" stroke:none;fill-rule:nonzero;fill:rgb(35.686275%,72.156864%,62.352943%);fill-opacity:1;" d="M 160.394531 258.917969 C 156.261719 258.503906 151.660156 258.152344 152.609375 250.898438 C 155.171875 253.160156 157.710938 255.878906 160.394531 258.917969 Z M 160.394531 258.917969 "/>
<path style=" stroke:none;fill-rule:nonzero;fill:rgb(30.588236%,65.490198%,65.882355%);fill-opacity:1;" d="M 226.246094 392.808594 C 228.050781 388.550781 231.652344 388.851562 235.613281 389.660156 C 232.8125 390.878906 229.714844 391.84375 226.246094 392.808594 Z M 226.246094 392.808594 "/>
<path style=" stroke:none;fill-rule:nonzero;fill:rgb(35.686275%,72.156864%,62.352943%);fill-opacity:1;" d="M 130.246094 262.957031 C 133.042969 262.800781 137.378906 261.128906 135.484375 267.859375 C 133.679688 266.589844 132.035156 264.941406 130.246094 262.957031 Z M 130.246094 262.957031 "/>
<path style=" stroke:none;fill-rule:nonzero;fill:rgb(29.803923%,61.56863%,58.823532%);fill-opacity:1;" d="M 325.832031 360.507812 C 325.273438 363.191406 324.445312 366.128906 323.359375 369.25 C 323.925781 366.546875 324.746094 363.65625 325.832031 360.507812 Z M 325.832031 360.507812 "/>
<path style=" stroke:none;fill-rule:nonzero;fill:rgb(35.294119%,71.372551%,61.176473%);fill-opacity:1;" d="M 373.03125 226.523438 C 373.09375 229.457031 372.386719 232.125 368.367188 232.089844 C 369.542969 230.261719 371.128906 228.46875 373.03125 226.523438 Z M 373.03125 226.523438 "/>
<path style=" stroke:none;fill-rule:nonzero;fill:rgb(29.803923%,61.56863%,58.823532%);fill-opacity:1;" d="M 322.351562 371.894531 C 322.589844 371.605469 322.972656 371.578125 323.171875 371.582031 C 323.011719 373.46875 322.65625 375.347656 322.097656 377.648438 C 321.648438 378.09375 321.398438 378.101562 321.148438 378.089844 C 321.472656 376.121094 321.792969 374.152344 322.351562 371.894531 Z M 322.351562 371.894531 "/>
<path style=" stroke:none;fill-rule:nonzero;fill:rgb(31.764707%,67.058825%,62.7451%);fill-opacity:1;" d="M 320.964844 378.460938 C 321.398438 378.101562 321.648438 378.09375 322.078125 378.058594 C 322.148438 379.082031 322.03125 380.109375 321.390625 381.21875 C 320.863281 381.296875 320.398438 381.316406 320.398438 381.316406 C 320.527344 380.488281 320.652344 379.660156 320.964844 378.460938 Z M 320.964844 378.460938 "/>
<path style=" stroke:none;fill-rule:nonzero;fill:rgb(29.803923%,61.56863%,58.823532%);fill-opacity:1;" d="M 256.300781 356.585938 C 256.265625 355.910156 256.519531 355.382812 256.886719 354.578125 C 257.902344 354.824219 258.808594 355.347656 259.863281 356.164062 C 258.875 356.546875 257.734375 356.640625 256.300781 356.585938 Z M 256.300781 356.585938 "/>
<path style=" stroke:none;fill-rule:nonzero;fill:rgb(35.294119%,71.372551%,61.176473%);fill-opacity:1;" d="M 386.816406 211.519531 C 387.28125 212.246094 387.488281 213.0625 387.695312 213.882812 C 387.019531 213.898438 386.34375 213.914062 385.472656 213.652344 C 385.707031 212.785156 386.132812 212.199219 386.816406 211.519531 Z M 386.816406 211.519531 "/>
<path style=" stroke:none;fill-rule:nonzero;fill:rgb(29.803923%,61.56863%,58.823532%);fill-opacity:1;" d="M 320.230469 381.585938 C 320.398438 381.316406 320.863281 381.296875 321.089844 381.296875 C 321.085938 382.582031 320.851562 383.859375 320.351562 385.414062 C 320.078125 384.410156 320.066406 383.132812 320.230469 381.585938 Z M 320.230469 381.585938 "/>
<path style=" stroke:none;fill-rule:nonzero;fill:rgb(35.686275%,72.156864%,62.352943%);fill-opacity:1;" d="M 122.3125 254.277344 C 123.222656 254.855469 124.28125 255.75 125.324219 257.082031 C 124.355469 256.542969 123.410156 255.570312 122.3125 254.277344 Z M 122.3125 254.277344 "/>
<path style=" stroke:none;fill-rule:nonzero;fill:rgb(39.607844%,75.294119%,63.137257%);fill-opacity:1;" d="M 336.808594 195.671875 C 337.183594 194.632812 337.886719 193.523438 338.921875 192.347656 C 338.546875 193.386719 337.835938 194.492188 336.808594 195.671875 Z M 336.808594 195.671875 "/>
<path style=" stroke:none;fill-rule:nonzero;fill:rgb(29.803923%,61.56863%,58.823532%);fill-opacity:1;" d="M 266.101562 359.929688 C 265.527344 359.917969 264.777344 359.679688 264.007812 359.097656 C 264.632812 359.066406 265.285156 359.386719 266.101562 359.929688 Z M 266.101562 359.929688 "/>
<path style=" stroke:none;fill-rule:nonzero;fill:rgb(33.725491%,69.803923%,62.352943%);fill-opacity:1;" d="M 214.5 318.425781 C 213.664062 317.933594 212.742188 317.132812 211.785156 315.976562 C 212.640625 316.449219 213.527344 317.28125 214.5 318.425781 Z M 214.5 318.425781 "/>
<path style=" stroke:none;fill-rule:nonzero;fill:rgb(32.156864%,68.235296%,64.313728%);fill-opacity:1;" d="M 221.109375 358.605469 C 221.683594 358.679688 222.414062 359.019531 222.960938 359.558594 C 222.269531 359.460938 221.769531 359.164062 221.109375 358.605469 Z M 221.109375 358.605469 "/>
<path style=" stroke:none;fill-rule:nonzero;fill:rgb(35.294119%,71.372551%,61.176473%);fill-opacity:1;" d="M 379.28125 219.554688 C 378.824219 220.464844 378.078125 221.472656 376.996094 222.5 C 377.4375 221.5625 378.214844 220.605469 379.28125 219.554688 Z M 379.28125 219.554688 "/>
<path style=" stroke:none;fill-rule:nonzero;fill:rgb(29.803923%,61.56863%,58.823532%);fill-opacity:1;" d="M 348.09375 324.199219 C 347.792969 325.058594 347.195312 326.054688 346.222656 327.058594 C 346.5 326.15625 347.144531 325.246094 348.09375 324.199219 Z M 348.09375 324.199219 "/>
<path style=" stroke:none;fill-rule:nonzero;fill:rgb(29.803923%,61.56863%,58.823532%);fill-opacity:1;" d="M 340.03125 333.832031 C 339.8125 334.699219 339.308594 335.726562 338.449219 336.773438 C 338.644531 335.859375 339.199219 334.925781 340.03125 333.832031 Z M 340.03125 333.832031 "/>
<path style=" stroke:none;fill-rule:nonzero;fill:rgb(35.294119%,71.372551%,61.176473%);fill-opacity:1;" d="M 384.09375 214.582031 C 383.738281 215.328125 383.089844 216.210938 382.089844 217.136719 C 382.425781 216.359375 383.113281 215.539062 384.09375 214.582031 Z M 384.09375 214.582031 "/>
<path style=" stroke:none;fill-rule:nonzero;fill:rgb(29.803923%,61.56863%,58.823532%);fill-opacity:1;" d="M 337.859375 336.882812 C 337.789062 337.5 337.449219 338.25 336.8125 339.09375 C 336.871094 338.460938 337.230469 337.738281 337.859375 336.882812 Z M 337.859375 336.882812 "/>
<path style=" stroke:none;fill-rule:nonzero;fill:rgb(30.588236%,65.490198%,65.882355%);fill-opacity:1;" d="M 183.230469 378.847656 C 182.871094 378.558594 182.554688 377.980469 182.398438 377.21875 C 182.796875 377.546875 183.03125 378.054688 183.230469 378.847656 Z M 183.230469 378.847656 "/>
<path style=" stroke:none;fill-rule:nonzero;fill:rgb(29.803923%,61.56863%,58.823532%);fill-opacity:1;" d="M 327.882812 355.113281 C 327.902344 355.707031 327.671875 356.480469 327.1875 357.410156 C 327.167969 356.804688 327.402344 356.050781 327.882812 355.113281 Z M 327.882812 355.113281 "/>
<path style=" stroke:none;fill-rule:nonzero;fill:rgb(29.803923%,61.56863%,58.823532%);fill-opacity:1;" d="M 335.898438 339.96875 C 335.824219 340.601562 335.488281 341.40625 334.839844 342.320312 C 334.894531 341.664062 335.261719 340.898438 335.898438 339.96875 Z M 335.898438 339.96875 "/>
<path style=" stroke:none;fill-rule:nonzero;fill:rgb(33.725491%,69.803923%,62.352943%);fill-opacity:1;" d="M 191.675781 329.824219 C 192.238281 330.015625 192.90625 330.511719 193.628906 331.363281 C 193.050781 331.1875 192.417969 330.660156 191.675781 329.824219 Z M 191.675781 329.824219 "/>
<path style=" stroke:none;fill-rule:nonzero;fill:rgb(29.803923%,61.56863%,58.823532%);fill-opacity:1;" d="M 319.753906 387.394531 C 319.503906 387.714844 318.957031 388.164062 318.328125 388.328125 C 318.652344 387.871094 319.050781 387.699219 319.753906 387.394531 Z M 319.753906 387.394531 "/>
<path style=" stroke:none;fill-rule:nonzero;fill:rgb(40.392157%,73.725492%,59.215689%);fill-opacity:1;" d="M 241.71875 69.488281 C 241.746094 70.15625 241.507812 71.023438 241.011719 72.097656 C 240.988281 71.429688 241.226562 70.558594 241.71875 69.488281 Z M 241.71875 69.488281 "/>
<path style=" stroke:none;fill-rule:nonzero;fill:rgb(39.607844%,75.294119%,63.137257%);fill-opacity:1;" d="M 312.875 191.105469 C 312.933594 191.550781 312.730469 192.214844 312.253906 193.082031 C 312.191406 192.636719 312.402344 191.976562 312.875 191.105469 Z M 312.875 191.105469 "/>
<path style=" stroke:none;fill-rule:nonzero;fill:rgb(29.803923%,61.56863%,58.823532%);fill-opacity:1;" d="M 329.082031 352.386719 C 329.128906 352.789062 328.914062 353.351562 328.476562 354.109375 C 328.445312 353.722656 328.636719 353.136719 329.082031 352.386719 Z M 329.082031 352.386719 "/>
<path style=" stroke:none;fill-rule:nonzero;fill:rgb(40.000001%,76.078433%,61.960787%);fill-opacity:1;" d="M 114.933594 245.933594 C 115.34375 246.019531 115.804688 246.433594 116.308594 247.191406 C 115.898438 247.113281 115.445312 246.6875 114.933594 245.933594 Z M 114.933594 245.933594 "/>
<path style=" stroke:none;fill-rule:nonzero;fill:rgb(39.607844%,75.294119%,63.137257%);fill-opacity:1;" d="M 311.808594 193.3125 C 311.851562 193.761719 311.636719 194.394531 311.121094 195.171875 C 311.0625 194.714844 311.304688 194.105469 311.808594 193.3125 Z M 311.808594 193.3125 "/>
<path style=" stroke:none;fill-rule:nonzero;fill:rgb(40.392157%,73.725492%,59.215689%);fill-opacity:1;" d="M 240.074219 75.902344 C 240.421875 75.847656 240.503906 76.132812 240.273438 76.601562 C 240.117188 76.542969 240.066406 76.363281 240.074219 75.902344 Z M 240.074219 75.902344 "/>
<path style=" stroke:none;fill-rule:nonzero;fill:rgb(40.392157%,73.725492%,59.215689%);fill-opacity:1;" d="M 263.855469 76.40625 C 263.507812 76.445312 263.4375 76.179688 263.683594 75.757812 C 263.792969 75.65625 263.921875 76.15625 263.855469 76.40625 Z M 263.855469 76.40625 "/>
<path style=" stroke:none;fill-rule:nonzero;fill:rgb(35.686275%,72.156864%,62.352943%);fill-opacity:1;" d="M 151.550781 249.203125 C 151.375 249.246094 151.085938 249.007812 150.648438 248.519531 C 150.808594 248.484375 151.121094 248.703125 151.550781 249.203125 Z M 151.550781 249.203125 "/>
<path style=" stroke:none;fill-rule:nonzero;fill:rgb(31.764707%,67.058825%,62.7451%);fill-opacity:1;" d="M 343.257812 389.652344 C 342.914062 389.648438 342.871094 389.378906 343.167969 388.980469 C 343.285156 388.886719 343.34375 389.40625 343.257812 389.652344 Z M 343.257812 389.652344 "/>
</g>
</svg>
