<svg version="1.1" id="Layer_1" xmlns="http://www.w3.org/2000/svg" xmlns:xlink="http://www.w3.org/1999/xlink" x="0px" y="0px" width="100%" viewBox="0 0 508 474" enable-background="new 0 0 508 474" xml:space="preserve">
<path fill="#171A2C" opacity="1.000000" stroke="none" d="&#xA;M356.000000,475.000000 &#xA;&#x9;C237.333359,475.000000 119.166725,475.000000 1.000063,475.000000 &#xA;&#x9;C1.000042,317.000061 1.000042,159.000137 1.000021,1.000148 &#xA;&#x9;C170.333237,1.000099 339.666473,1.000099 508.999756,1.000049 &#xA;&#x9;C508.999847,158.999863 508.999847,316.999725 508.999939,474.999786 &#xA;&#x9;C458.166656,475.000000 407.333344,475.000000 356.000000,475.000000 &#xA;M309.313416,179.138138 &#xA;&#x9;C309.072144,179.699951 308.830841,180.261765 308.543182,180.819122 &#xA;&#x9;C308.543182,180.819122 308.502441,180.795563 307.968567,181.158447 &#xA;&#x9;C303.368469,189.020172 298.577759,196.778442 294.234253,204.779449 &#xA;&#x9;C291.268005,210.243408 293.531891,216.895645 298.787750,219.873703 &#xA;&#x9;C304.515106,223.118912 311.875702,221.789993 315.168182,216.536041 &#xA;&#x9;C318.510376,211.202728 321.551636,205.670532 324.520691,200.116364 &#xA;&#x9;C327.855133,193.878723 330.961151,187.518982 334.117584,181.187195 &#xA;&#x9;C334.117584,181.187195 334.148926,181.214874 334.786835,181.082657 &#xA;&#x9;C335.493317,180.057770 336.199829,179.032867 337.332947,177.517334 &#xA;&#x9;C337.894653,176.362274 338.456329,175.207214 339.546051,173.625778 &#xA;&#x9;C348.717377,157.425064 357.888702,141.224350 367.564575,124.580025 &#xA;&#x9;C368.994873,122.158379 370.610352,119.825256 371.819000,117.297630 &#xA;&#x9;C374.826172,111.008537 372.642548,104.579193 366.518158,101.135902 &#xA;&#x9;C361.156006,98.121162 353.807556,100.031082 350.438538,105.615189 &#xA;&#x9;C348.310059,109.143135 346.653595,112.955856 344.251617,117.077179 &#xA;&#x9;C335.266327,133.048935 326.281067,149.020691 316.801727,165.501282 &#xA;&#x9;C314.834045,169.241760 312.866333,172.982239 310.377441,177.120392 &#xA;&#x9;C310.167847,177.729248 309.958252,178.338104 309.876251,178.917679 &#xA;&#x9;C309.876251,178.917679 309.832886,178.794159 309.313416,179.138138 &#xA;M335.247742,312.000824 &#xA;&#x9;C334.889954,312.671692 334.532166,313.342560 333.918427,314.246826 &#xA;&#x9;C333.918427,314.246826 333.829651,314.581635 333.293915,314.890076 &#xA;&#x9;C332.929199,315.598175 332.564484,316.306274 331.737885,317.533295 &#xA;&#x9;C330.169739,320.383484 328.601593,323.233704 326.522156,326.384796 &#xA;&#x9;C326.330841,326.926819 326.139526,327.468842 325.794220,328.280243 &#xA;&#x9;C325.794220,328.280243 325.827148,328.588837 325.335754,328.923096 &#xA;&#x9;C325.102997,329.623871 324.870239,330.324677 324.269104,331.583191 &#xA;&#x9;C324.114929,332.227997 323.960754,332.872833 323.274780,333.988037 &#xA;&#x9;C322.458740,336.665070 321.642700,339.342133 320.508972,342.645142 &#xA;&#x9;C320.442291,343.105438 320.375610,343.565765 319.837860,344.558533 &#xA;&#x9;C319.517853,346.381989 319.197815,348.205414 318.502960,350.717377 &#xA;&#x9;C318.379211,351.483276 318.255432,352.249146 317.785431,353.515289 &#xA;&#x9;C317.796265,354.697083 317.807098,355.878845 317.656952,357.537018 &#xA;&#x9;C317.700226,357.865875 317.743500,358.194733 317.186157,358.764069 &#xA;&#x9;C316.786407,358.924835 316.386627,359.085571 315.685913,358.970520 &#xA;&#x9;C315.685913,358.970520 315.293549,358.858093 314.989197,358.246796 &#xA;&#x9;C311.646118,355.954620 308.303040,353.662445 304.460327,350.880737 &#xA;&#x9;C303.022522,350.126678 301.584686,349.372620 299.802460,348.083221 &#xA;&#x9;C288.198059,343.344574 276.593628,338.605927 264.661560,333.560059 &#xA;&#x9;C264.661560,333.560059 264.232483,333.427399 263.889343,333.005829 &#xA;&#x9;C263.243500,332.711975 262.597687,332.418121 261.517853,331.644470 &#xA;&#x9;C260.345184,331.096649 259.172485,330.548828 257.693298,329.457031 &#xA;&#x9;C256.793854,328.974060 255.894394,328.491119 254.456253,327.603516 &#xA;&#x9;C247.083328,322.611664 239.491013,317.909363 232.404495,312.539520 &#xA;&#x9;C226.352585,307.953644 220.881470,302.601288 214.945114,297.028778 &#xA;&#x9;C214.218155,296.377960 213.491180,295.727142 212.590256,294.505310 &#xA;&#x9;C211.705719,293.734100 210.821182,292.962891 209.669937,291.568420 &#xA;&#x9;C193.766418,275.439148 177.862885,259.309845 161.682724,242.607727 &#xA;&#x9;C160.766144,241.738632 159.849564,240.869553 158.655746,239.405029 &#xA;&#x9;C156.123993,236.887772 153.592255,234.370514 150.891510,231.418579 &#xA;&#x9;C150.698532,231.145889 150.435593,230.995728 149.870621,230.449051 &#xA;&#x9;C149.559906,230.246262 149.249191,230.043472 148.660690,229.254425 &#xA;&#x9;C142.116501,222.831985 135.572311,216.409546 128.707993,209.391052 &#xA;&#x9;C128.166626,209.019669 127.538864,208.730377 127.096565,208.264877 &#xA;&#x9;C116.357361,196.961823 105.623245,185.653824 94.921509,174.315308 &#xA;&#x9;C90.071938,169.177170 82.842873,168.818817 77.565453,173.538300 &#xA;&#x9;C72.618919,177.961868 72.218529,186.070984 76.840576,191.004517 &#xA;&#x9;C80.019554,194.397705 83.368889,197.632446 86.670135,200.909729 &#xA;&#x9;C95.572723,209.747696 104.490341,218.570511 113.434875,227.379333 &#xA;&#x9;C113.434875,227.379333 113.471359,227.380432 113.576683,227.984329 &#xA;&#x9;C114.031578,228.378479 114.486473,228.772644 115.183128,229.765991 &#xA;&#x9;C117.029839,231.547714 118.876549,233.329422 121.022026,235.700119 &#xA;&#x9;C121.965729,236.601852 122.909431,237.503571 124.132385,238.954712 &#xA;&#x9;C125.632294,240.347824 127.132202,241.740952 128.919968,243.749313 &#xA;&#x9;C130.555618,245.276794 132.191269,246.804276 133.977051,248.847427 &#xA;&#x9;C134.513626,249.288315 135.050186,249.729202 135.837433,250.813812 &#xA;&#x9;C141.881943,256.958679 147.891663,263.138275 153.978363,269.241058 &#xA;&#x9;C165.908386,281.202637 177.881302,293.121460 190.052582,305.632721 &#xA;&#x9;C190.683945,306.120667 191.315308,306.608643 191.982574,307.022858 &#xA;&#x9;C191.982574,307.022858 191.909790,307.060638 192.185883,307.671173 &#xA;&#x9;C201.156708,315.695526 210.127518,323.719910 219.415939,332.234863 &#xA;&#x9;C219.913773,332.508636 220.411606,332.782410 221.266357,333.598480 &#xA;&#x9;C222.297745,334.390747 223.329132,335.182983 224.547653,336.800629 &#xA;&#x9;C223.358414,337.662659 222.273849,338.757538 220.962158,339.347168 &#xA;&#x9;C214.641861,342.188232 208.260330,344.893127 201.177673,347.763550 &#xA;&#x9;C195.364380,351.367737 189.551086,354.971924 183.515015,358.714233 &#xA;&#x9;C183.105591,357.884369 182.624466,356.909180 182.241272,355.096924 &#xA;&#x9;C181.990845,353.731659 181.740417,352.366364 181.575226,350.462250 &#xA;&#x9;C181.338516,349.994202 181.101807,349.526123 180.940445,348.233063 &#xA;&#x9;C179.274719,336.716553 174.831573,326.362427 167.775314,316.386993 &#xA;&#x9;C162.037811,309.563354 156.456894,302.599609 150.513947,295.959839 &#xA;&#x9;C145.638885,290.513214 137.648270,290.335846 132.785660,295.122498 &#xA;&#x9;C128.186783,299.649567 128.454254,307.449188 132.940323,312.710480 &#xA;&#x9;C139.153214,319.997040 145.066116,327.539398 151.231339,335.679596 &#xA;&#x9;C153.863525,344.104553 156.495712,352.529480 159.031067,361.892578 &#xA;&#x9;C159.376587,373.413849 159.070618,384.804382 155.331238,395.949860 &#xA;&#x9;C153.210083,402.272125 156.266235,408.199158 161.796387,410.499634 &#xA;&#x9;C167.877319,413.029175 174.556671,410.538605 177.860641,404.289276 &#xA;&#x9;C183.303787,393.993774 190.174637,384.727661 199.508667,377.816437 &#xA;&#x9;C206.405334,372.709930 214.211929,368.832306 222.248444,364.402405 &#xA;&#x9;C222.830673,364.151611 223.412903,363.900818 224.746399,363.658905 &#xA;&#x9;C227.827667,362.762878 230.908920,361.866852 234.818466,360.970245 &#xA;&#x9;C243.528122,360.698578 252.245239,360.096863 260.944275,360.293793 &#xA;&#x9;C265.327911,360.392975 269.678772,361.940796 274.592346,363.290680 &#xA;&#x9;C276.309174,363.917389 278.061218,364.462311 279.737457,365.183350 &#xA;&#x9;C298.598389,373.295959 313.219147,385.993988 322.424103,404.592316 &#xA;&#x9;C325.162933,410.125977 331.947906,412.645020 337.746155,410.489258 &#xA;&#x9;C343.224457,408.452454 347.162628,402.184784 345.185333,396.900085 &#xA;&#x9;C340.807617,385.199829 340.664032,373.130219 340.974091,360.503967 &#xA;&#x9;C340.974091,360.503967 340.918396,360.022614 341.183899,359.304443 &#xA;&#x9;C341.503662,357.072296 341.823425,354.840179 342.709015,352.060303 &#xA;&#x9;C345.454590,342.055359 349.477692,332.620422 355.984253,324.473724 &#xA;&#x9;C359.388092,320.211945 363.351776,316.398743 367.040131,312.362396 &#xA;&#x9;C371.849365,307.099335 371.959839,299.791901 367.323212,295.346710 &#xA;&#x9;C362.226349,290.460297 355.187836,290.533386 349.986389,295.597504 &#xA;&#x9;C348.569641,296.976807 347.327240,298.535187 345.411652,300.264923 &#xA;&#x9;C344.764618,301.107361 344.117584,301.949799 342.892700,303.042969 &#xA;&#x9;C341.247559,304.996796 339.602417,306.950623 337.406891,309.205475 &#xA;&#x9;C336.852051,310.069183 336.297211,310.932892 335.873199,311.897095 &#xA;&#x9;C335.873199,311.897095 335.785095,311.757629 335.247742,312.000824 &#xA;M238.043594,71.043007 &#xA;&#x9;C238.043594,71.043007 237.860138,70.988243 237.423462,71.608429 &#xA;&#x9;C236.949219,79.813446 236.103714,88.017815 236.089462,96.223633 &#xA;&#x9;C236.069061,107.951096 236.927322,119.679947 236.913239,131.407593 &#xA;&#x9;C236.897400,144.617249 236.287308,157.825378 236.021545,171.035904 &#xA;&#x9;C235.905121,176.822418 235.870377,182.618164 236.088669,188.398758 &#xA;&#x9;C236.147308,189.951691 237.270462,191.464432 238.064407,193.757416 &#xA;&#x9;C239.262817,200.757080 244.183350,205.164276 250.454407,204.854843 &#xA;&#x9;C256.433990,204.559769 261.788727,199.682327 261.823975,193.752289 &#xA;&#x9;C261.922638,177.162811 261.722290,160.571533 261.808258,143.060562 &#xA;&#x9;C261.767975,130.034973 261.727661,117.009377 261.859619,103.063202 &#xA;&#x9;C261.824097,92.364296 261.788574,81.665390 261.887054,70.503792 &#xA;&#x9;C261.887054,70.503792 261.758392,70.039581 261.872528,69.294830 &#xA;&#x9;C261.115326,63.846291 258.242249,60.003681 252.810272,58.849865 &#xA;&#x9;C247.545670,57.731609 243.055740,59.383831 239.522614,64.517418 &#xA;&#x9;C239.286484,65.323502 239.050354,66.129578 238.367905,67.421791 &#xA;&#x9;C238.311295,68.284714 238.254684,69.147629 238.083237,70.525513 &#xA;&#x9;C238.133728,70.693977 238.184204,70.862450 238.043594,71.043007 &#xA;M384.707428,228.757095 &#xA;&#x9;C397.153107,216.292587 409.635315,203.864227 422.026886,191.346176 &#xA;&#x9;C427.152893,186.167877 427.160645,178.857361 422.276001,173.950073 &#xA;&#x9;C417.190979,168.841461 409.795349,168.949905 404.593384,174.384933 &#xA;&#x9;C397.839935,181.441010 391.207855,188.613251 384.016937,195.905518 &#xA;&#x9;C383.588593,196.449326 383.160248,196.993134 382.306519,197.733856 &#xA;&#x9;C382.042755,197.934845 381.889771,198.199799 381.266479,198.780365 &#xA;&#x9;C380.581482,199.541290 379.896484,200.302216 378.636688,201.303650 &#xA;&#x9;C378.108307,201.925705 377.579926,202.547745 376.477325,203.347626 &#xA;&#x9;C375.701965,204.233276 374.926605,205.118927 373.641998,206.353958 &#xA;&#x9;C372.714508,207.427322 371.787018,208.500702 370.225250,209.849380 &#xA;&#x9;C368.645569,211.511124 367.065857,213.172867 365.153320,214.910095 &#xA;&#x9;C364.936676,215.036423 364.824585,215.224915 364.204010,215.811295 &#xA;&#x9;C354.936371,225.104248 345.593536,234.323883 336.432770,243.720963 &#xA;&#x9;C331.834656,248.437683 332.114075,256.469940 336.683411,260.863312 &#xA;&#x9;C341.314331,265.315918 348.583466,265.698151 352.933807,261.283813 &#xA;&#x9;C363.425934,250.637268 373.726624,239.802063 384.707428,228.757095 &#xA;M235.228012,298.390228 &#xA;&#x9;C246.236328,302.650116 257.243561,302.621796 267.570648,296.860321 &#xA;&#x9;C281.324036,289.187317 287.219971,276.784332 285.978546,261.339752 &#xA;&#x9;C284.838928,247.161972 277.051056,237.108627 264.160278,231.465744 &#xA;&#x9;C250.106506,225.313782 236.928268,227.900101 225.553314,237.815811 &#xA;&#x9;C207.755341,253.330582 209.020264,285.271942 235.228012,298.390228 &#xA;M182.067261,211.547211 &#xA;&#x9;C184.091125,214.322845 185.630463,217.732193 188.246948,219.732773 &#xA;&#x9;C192.713608,223.148010 199.823303,221.891418 203.790497,217.843964 &#xA;&#x9;C207.867935,213.684036 207.978470,208.435059 204.230209,201.845459 &#xA;&#x9;C189.443726,175.850372 174.683502,149.840363 159.903687,123.841492 &#xA;&#x9;C156.539597,117.923775 153.199799,111.990738 149.730988,106.134560 &#xA;&#x9;C146.885635,101.330925 141.727539,98.934357 136.649353,99.824043 &#xA;&#x9;C132.233688,100.597672 127.535378,104.862022 127.314079,109.670845 &#xA;&#x9;C127.155563,113.115387 127.932297,117.080139 129.621353,120.058846 &#xA;&#x9;C146.840012,150.424408 164.331573,180.635223 182.067261,211.547211 &#xA;z"></path>
<path fill="#5DBBA0" opacity="1.000000" stroke="none" d="&#xA;M234.875092,298.244202 &#xA;&#x9;C209.020264,285.271942 207.755341,253.330582 225.553314,237.815811 &#xA;&#x9;C236.928268,227.900101 250.106506,225.313782 264.160278,231.465744 &#xA;&#x9;C277.051056,237.108627 284.838928,247.161972 285.978546,261.339752 &#xA;&#x9;C287.219971,276.784332 281.324036,289.187317 267.570648,296.860321 &#xA;&#x9;C257.243561,302.621796 246.236328,302.650116 234.875092,298.244202 &#xA;z"></path>
<path fill="#DBF9E8" opacity="1.000000" stroke="none" d="&#xA;M181.907013,211.218262 &#xA;&#x9;C164.331573,180.635223 146.840012,150.424408 129.621353,120.058846 &#xA;&#x9;C127.932297,117.080139 127.155563,113.115387 127.314079,109.670845 &#xA;&#x9;C127.535378,104.862022 132.233688,100.597672 136.649353,99.824043 &#xA;&#x9;C141.727539,98.934357 146.885635,101.330925 149.730988,106.134560 &#xA;&#x9;C153.199799,111.990738 156.539597,117.923775 159.903687,123.841492 &#xA;&#x9;C174.683502,149.840363 189.443726,175.850372 204.230209,201.845459 &#xA;&#x9;C207.978470,208.435059 207.867935,213.684036 203.790497,217.843964 &#xA;&#x9;C199.823303,221.891418 192.713608,223.148010 188.246948,219.732773 &#xA;&#x9;C185.630463,217.732193 184.091125,214.322845 181.907013,211.218262 &#xA;z"></path>
<path fill="#4EA8A9" opacity="1.000000" stroke="none" d="&#xA;M300.146881,348.618591 &#xA;&#x9;C301.584686,349.372620 303.022522,350.126678 304.718323,351.478760 &#xA;&#x9;C306.935425,356.588867 310.495209,358.665680 315.293549,358.858093 &#xA;&#x9;C315.293549,358.858093 315.685913,358.970520 315.915955,359.370667 &#xA;&#x9;C316.692902,359.355072 317.239838,358.939331 317.786774,358.523590 &#xA;&#x9;C317.743500,358.194733 317.700226,357.865875 318.002197,357.046448 &#xA;&#x9;C318.580811,355.370758 318.814178,354.185577 319.345398,352.926270 &#xA;&#x9;C319.757477,351.898743 319.871765,350.945312 320.006531,349.610718 &#xA;&#x9;C320.378448,347.490265 320.729889,345.751007 321.480957,344.009277 &#xA;&#x9;C324.777008,345.043854 327.653961,346.140717 330.577728,347.093872 &#xA;&#x9;C332.155304,347.608154 333.977814,348.513641 335.405762,348.144348 &#xA;&#x9;C341.244537,346.634338 341.501251,346.671204 342.143188,352.608032 &#xA;&#x9;C341.823425,354.840179 341.503662,357.072296 340.934631,359.752380 &#xA;&#x9;C340.506927,360.477905 340.547577,360.730774 340.807312,360.958954 &#xA;&#x9;C340.664032,373.130219 340.807617,385.199829 345.185333,396.900085 &#xA;&#x9;C347.162628,402.184784 343.224457,408.452454 337.746155,410.489258 &#xA;&#x9;C331.947906,412.645020 325.162933,410.125977 322.424103,404.592316 &#xA;&#x9;C313.219147,385.993988 298.598389,373.295959 279.737457,365.183350 &#xA;&#x9;C278.061218,364.462311 276.309174,363.917389 274.328979,362.683350 &#xA;&#x9;C274.983765,361.080627 275.927734,359.207153 276.815918,359.233246 &#xA;&#x9;C282.305481,359.394379 285.653992,356.317963 288.167175,352.242920 &#xA;&#x9;C290.670380,353.434021 292.762421,354.847839 295.057587,355.371979 &#xA;&#x9;C296.545715,355.711792 298.585022,355.106171 299.851624,354.194092 &#xA;&#x9;C300.329651,353.849854 299.327911,351.450714 299.236389,349.800232 &#xA;&#x9;C299.696991,349.280975 299.921936,348.949799 300.146881,348.618591 &#xA;z"></path>
<path fill="#4EA7A8" opacity="1.000000" stroke="none" d="&#xA;M221.613129,364.407166 &#xA;&#x9;C214.211929,368.832306 206.405334,372.709930 199.508667,377.816437 &#xA;&#x9;C190.174637,384.727661 183.303787,393.993774 177.860641,404.289276 &#xA;&#x9;C174.556671,410.538605 167.877319,413.029175 161.796387,410.499634 &#xA;&#x9;C156.266235,408.199158 153.210083,402.272125 155.331238,395.949860 &#xA;&#x9;C159.070618,384.804382 159.376587,373.413849 159.267090,361.203857 &#xA;&#x9;C159.785965,359.771088 160.068832,359.027069 160.360107,358.260956 &#xA;&#x9;C164.586990,362.255768 172.227859,363.405731 175.479065,360.728638 &#xA;&#x9;C177.587143,358.992798 179.914322,357.522980 182.143341,355.933960 &#xA;&#x9;C182.624466,356.909180 183.105591,357.884369 183.515015,358.714233 &#xA;&#x9;C189.551086,354.971924 195.364380,351.367737 201.581161,348.108643 &#xA;&#x9;C204.042297,349.659302 205.979355,351.541962 208.181854,351.934174 &#xA;&#x9;C213.304184,352.846436 216.555222,355.616516 218.762787,360.105103 &#xA;&#x9;C219.515762,361.636078 220.652008,362.978546 221.613129,364.407166 &#xA;z"></path>
<path fill="#52AEA4" opacity="1.000000" stroke="none" d="&#xA;M221.930786,364.404785 &#xA;&#x9;C220.652008,362.978546 219.515762,361.636078 218.762787,360.105103 &#xA;&#x9;C216.555222,355.616516 213.304184,352.846436 208.181854,351.934174 &#xA;&#x9;C205.979355,351.541962 204.042297,349.659302 201.942596,348.050049 &#xA;&#x9;C208.260330,344.893127 214.641861,342.188232 220.962158,339.347168 &#xA;&#x9;C222.273849,338.757538 223.358414,337.662659 224.800598,336.371826 &#xA;&#x9;C226.122910,334.859802 227.477676,333.939880 228.208496,332.662872 &#xA;&#x9;C230.468658,328.713470 231.879044,328.464691 235.304810,331.280243 &#xA;&#x9;C236.456696,332.226990 238.301193,333.081451 239.667984,332.880737 &#xA;&#x9;C244.486542,332.173248 249.235168,330.989532 254.301346,330.121155 &#xA;&#x9;C255.728180,330.170898 256.863983,330.085968 257.999817,330.001038 &#xA;&#x9;C259.172485,330.548828 260.345184,331.096649 261.757233,332.204437 &#xA;&#x9;C262.741913,332.985413 263.487183,333.206390 264.232483,333.427368 &#xA;&#x9;C264.232483,333.427399 264.661560,333.560059 264.986084,334.024597 &#xA;&#x9;C267.412109,336.001678 269.324158,337.959656 271.648529,338.948120 &#xA;&#x9;C280.694977,342.795105 289.872162,346.334503 299.000732,349.988312 &#xA;&#x9;C299.327911,351.450714 300.329651,353.849854 299.851624,354.194092 &#xA;&#x9;C298.585022,355.106171 296.545715,355.711792 295.057587,355.371979 &#xA;&#x9;C292.762421,354.847839 290.670380,353.434021 288.167175,352.242920 &#xA;&#x9;C285.653992,356.317963 282.305481,359.394379 276.815918,359.233246 &#xA;&#x9;C275.927734,359.207153 274.983765,361.080627 274.054993,362.454834 &#xA;&#x9;C269.678772,361.940796 265.327911,360.392975 260.944275,360.293793 &#xA;&#x9;C252.245239,360.096863 243.528122,360.698578 234.115417,360.738159 &#xA;&#x9;C229.751160,359.990082 226.169571,359.712646 223.995117,363.650024 &#xA;&#x9;C223.412903,363.900818 222.830673,364.151611 221.930786,364.404785 &#xA;z"></path>
<path fill="#5BB89F" opacity="1.000000" stroke="none" d="&#xA;M189.836456,305.057953 &#xA;&#x9;C177.881302,293.121460 165.908386,281.202637 153.978363,269.241058 &#xA;&#x9;C147.891663,263.138275 141.881943,256.958679 136.091690,250.492828 &#xA;&#x9;C140.820450,253.105682 145.157394,253.387314 149.152740,248.661392 &#xA;&#x9;C150.332184,250.655457 151.109177,251.969086 151.888489,253.286667 &#xA;&#x9;C155.436523,249.945969 164.831757,252.646622 161.959366,243.180573 &#xA;&#x9;C177.862885,259.309845 193.766418,275.439148 209.837158,292.212738 &#xA;&#x9;C210.924301,293.596832 211.844254,294.336578 212.764206,295.076324 &#xA;&#x9;C213.491180,295.727142 214.218155,296.377960 214.959473,297.700195 &#xA;&#x9;C213.601013,299.326752 212.351303,300.632019 210.830658,301.166656 &#xA;&#x9;C207.279419,302.415192 202.564316,302.259979 200.235977,304.588501 &#xA;&#x9;C197.443268,307.381470 194.826782,306.825958 191.909790,307.060638 &#xA;&#x9;C191.909790,307.060638 191.982574,307.022858 191.909058,306.734375 &#xA;&#x9;C191.169189,305.983215 190.502823,305.520599 189.836456,305.057953 &#xA;z"></path>
<path fill="#60BB9D" opacity="1.000000" stroke="none" d="&#xA;M381.847534,198.528717 &#xA;&#x9;C381.889771,198.199799 382.042755,197.934845 382.717590,197.892395 &#xA;&#x9;C383.799622,198.036316 384.470612,198.021683 385.141602,198.007050 &#xA;&#x9;C384.935577,197.249847 384.729553,196.492676 384.523529,195.735504 &#xA;&#x9;C391.207855,188.613251 397.839935,181.441010 404.593384,174.384933 &#xA;&#x9;C409.795349,168.949905 417.190979,168.841461 422.276001,173.950073 &#xA;&#x9;C427.160645,178.857361 427.152893,186.167877 422.026886,191.346176 &#xA;&#x9;C409.635315,203.864227 397.153107,216.292587 384.024658,228.830536 &#xA;&#x9;C380.053558,228.180008 377.055847,227.368042 375.928101,223.371948 &#xA;&#x9;C375.614349,222.260223 373.042328,221.082535 371.552643,221.139786 &#xA;&#x9;C367.334991,221.301926 365.404205,219.334793 364.817047,215.475586 &#xA;&#x9;C364.824585,215.224915 364.936676,215.036423 365.729980,214.901794 &#xA;&#x9;C369.898529,214.895752 370.604950,212.428299 370.859528,209.574081 &#xA;&#x9;C371.787018,208.500702 372.714508,207.427322 374.234619,206.160370 &#xA;&#x9;C375.568665,205.034454 376.310089,204.102127 377.051514,203.169800 &#xA;&#x9;C377.579926,202.547745 378.108307,201.925705 379.274475,201.142456 &#xA;&#x9;C380.557373,200.163727 381.202454,199.346222 381.847534,198.528717 &#xA;z"></path>
<path fill="#66C29E" opacity="1.000000" stroke="none" d="&#xA;M113.401978,227.399338 &#xA;&#x9;C104.490341,218.570511 95.572723,209.747696 86.670135,200.909729 &#xA;&#x9;C83.368889,197.632446 80.019554,194.397705 76.840576,191.004517 &#xA;&#x9;C72.218529,186.070984 72.618919,177.961868 77.565453,173.538300 &#xA;&#x9;C82.842873,168.818817 90.071938,169.177170 94.921509,174.315308 &#xA;&#x9;C105.623245,185.653824 116.357361,196.961823 127.096565,208.264877 &#xA;&#x9;C127.538864,208.730377 128.166626,209.019669 128.571747,209.856262 &#xA;&#x9;C124.335602,214.671326 120.196342,218.985184 116.161957,223.394974 &#xA;&#x9;C115.078026,224.579788 114.313255,226.056580 113.401978,227.399338 &#xA;z"></path>
<path fill="#51ABA0" opacity="1.000000" stroke="none" d="&#xA;M342.426117,352.334167 &#xA;&#x9;C341.501251,346.671204 341.244537,346.634338 335.405762,348.144348 &#xA;&#x9;C333.977814,348.513641 332.155304,347.608154 330.577728,347.093872 &#xA;&#x9;C327.653961,346.140717 324.777008,345.043854 321.287231,344.002930 &#xA;&#x9;C320.693909,343.999084 320.308929,344.026062 320.308929,344.026062 &#xA;&#x9;C320.375610,343.565765 320.442291,343.105438 320.920166,342.159393 &#xA;&#x9;C322.156433,338.954987 322.981537,336.236328 323.806641,333.517639 &#xA;&#x9;C323.960754,332.872833 324.114929,332.227997 324.705658,331.161377 &#xA;&#x9;C325.370514,330.022675 325.598846,329.305756 325.827148,328.588837 &#xA;&#x9;C325.827148,328.588837 325.794220,328.280243 326.093994,327.963470 &#xA;&#x9;C326.606964,327.125763 326.820190,326.604828 327.033447,326.083893 &#xA;&#x9;C328.601593,323.233704 330.169739,320.383484 332.277008,317.171448 &#xA;&#x9;C333.153961,316.066925 333.491791,315.324280 333.829651,314.581635 &#xA;&#x9;C333.829651,314.581635 333.918427,314.246826 334.345520,314.043549 &#xA;&#x9;C335.110077,313.146057 335.447571,312.451843 335.785095,311.757629 &#xA;&#x9;C335.785095,311.757629 335.873199,311.897095 336.167297,311.829956 &#xA;&#x9;C336.959991,310.809998 337.458618,309.857239 337.957245,308.904449 &#xA;&#x9;C339.602417,306.950623 341.247559,304.996796 343.554688,302.908997 &#xA;&#x9;C344.812714,301.853821 345.408752,300.932587 346.004822,300.011383 &#xA;&#x9;C347.327240,298.535187 348.569641,296.976807 349.986389,295.597504 &#xA;&#x9;C355.187836,290.533386 362.226349,290.460297 367.323212,295.346710 &#xA;&#x9;C371.959839,299.791901 371.849365,307.099335 367.040131,312.362396 &#xA;&#x9;C363.351776,316.398743 359.388092,320.211945 355.984253,324.473724 &#xA;&#x9;C349.477692,332.620422 345.454590,342.055359 342.426117,352.334167 &#xA;z"></path>
<path fill="#5AB69C" opacity="1.000000" stroke="none" d="&#xA;M364.510529,215.643433 &#xA;&#x9;C365.404205,219.334793 367.334991,221.301926 371.552643,221.139786 &#xA;&#x9;C373.042328,221.082535 375.614349,222.260223 375.928101,223.371948 &#xA;&#x9;C377.055847,227.368042 380.053558,228.180008 383.723206,228.973465 &#xA;&#x9;C373.726624,239.802063 363.425934,250.637268 352.933807,261.283813 &#xA;&#x9;C348.583466,265.698151 341.314331,265.315918 336.683411,260.863312 &#xA;&#x9;C332.114075,256.469940 331.834656,248.437683 336.432770,243.720963 &#xA;&#x9;C345.593536,234.323883 354.936371,225.104248 364.510529,215.643433 &#xA;z"></path>
<path fill="#7AD095" opacity="1.000000" stroke="none" d="&#xA;M261.753082,70.966484 &#xA;&#x9;C261.788574,81.665390 261.824097,92.364296 261.422913,103.558891 &#xA;&#x9;C260.246735,105.021980 259.631927,106.129868 258.737946,106.923164 &#xA;&#x9;C257.461853,108.055573 256.116425,109.419769 254.563431,109.874008 &#xA;&#x9;C249.222122,111.436287 243.777679,112.645866 238.289185,113.528671 &#xA;&#x9;C238.090607,99.041077 237.975372,85.014664 237.860138,70.988243 &#xA;&#x9;C237.860138,70.988243 238.043594,71.043007 238.243561,70.923584 &#xA;&#x9;C238.568787,70.481949 238.486954,70.217407 238.198074,70.010551 &#xA;&#x9;C238.254684,69.147629 238.311295,68.284714 238.851562,66.990814 &#xA;&#x9;C239.570038,65.753792 239.804871,64.947746 240.039703,64.141701 &#xA;&#x9;C243.055740,59.383831 247.545670,57.731609 252.810272,58.849865 &#xA;&#x9;C258.242249,60.003681 261.115326,63.846291 261.707581,69.762634 &#xA;&#x9;C261.406921,70.527245 261.477081,70.772591 261.753082,70.966484 &#xA;z"></path>
<path fill="#6DC59A" opacity="1.000000" stroke="none" d="&#xA;M367.060059,125.023636 &#xA;&#x9;C357.888702,141.224350 348.717377,157.425064 339.282288,173.446350 &#xA;&#x9;C339.948517,170.454865 340.878479,167.642776 341.886475,164.594711 &#xA;&#x9;C337.066254,163.320602 334.158722,165.736740 331.072449,167.917709 &#xA;&#x9;C326.291748,171.296082 324.789795,170.818710 321.330750,166.084854 &#xA;&#x9;C320.689148,165.206757 318.675934,165.330872 317.295776,164.992447 &#xA;&#x9;C326.281067,149.020691 335.266327,133.048935 344.686554,117.212036 &#xA;&#x9;C345.065582,119.048775 345.690308,121.297089 344.837585,122.359238 &#xA;&#x9;C340.865234,127.307030 345.338562,128.699890 348.100616,130.625183 &#xA;&#x9;C350.951965,132.612762 356.782776,131.585846 357.597717,128.713654 &#xA;&#x9;C359.248047,122.896919 363.365448,124.808090 367.060059,125.023636 &#xA;z"></path>
<path fill="#71CB98" opacity="1.000000" stroke="none" d="&#xA;M238.372528,113.989838 &#xA;&#x9;C243.777679,112.645866 249.222122,111.436287 254.563431,109.874008 &#xA;&#x9;C256.116425,109.419769 257.461853,108.055573 258.737946,106.923164 &#xA;&#x9;C259.631927,106.129868 260.246735,105.021980 261.336792,104.019180 &#xA;&#x9;C261.727661,117.009377 261.767975,130.034973 261.390381,143.694458 &#xA;&#x9;C260.678070,144.896332 260.198090,145.439743 260.119110,146.036224 &#xA;&#x9;C259.592468,150.015457 260.536316,155.727509 258.304443,157.523026 &#xA;&#x9;C255.932404,159.431305 250.550674,157.273849 246.531082,157.561417 &#xA;&#x9;C243.304535,157.792267 240.395309,158.217987 238.353699,154.521240 &#xA;&#x9;C238.305328,140.703506 238.338928,127.346672 238.372528,113.989838 &#xA;z"></path>
<path fill="#67BC97" opacity="1.000000" stroke="none" d="&#xA;M238.435699,154.982162 &#xA;&#x9;C240.395309,158.217987 243.304535,157.792267 246.531082,157.561417 &#xA;&#x9;C250.550674,157.273849 255.932404,159.431305 258.304443,157.523026 &#xA;&#x9;C260.536316,155.727509 259.592468,150.015457 260.119110,146.036224 &#xA;&#x9;C260.198090,145.439743 260.678070,144.896332 261.306244,144.154663 &#xA;&#x9;C261.722290,160.571533 261.922638,177.162811 261.823975,193.752289 &#xA;&#x9;C261.788727,199.682327 256.433990,204.559769 250.454407,204.854843 &#xA;&#x9;C244.183350,205.164276 239.262817,200.757080 238.061920,192.913605 &#xA;&#x9;C238.184860,179.707260 238.310272,167.344711 238.435699,154.982162 &#xA;z"></path>
<path fill="#56B29F" opacity="1.000000" stroke="none" d="&#xA;M192.047836,307.365906 &#xA;&#x9;C194.826782,306.825958 197.443268,307.381470 200.235977,304.588501 &#xA;&#x9;C202.564316,302.259979 207.279419,302.415192 210.830658,301.166656 &#xA;&#x9;C212.351303,300.632019 213.601013,299.326752 215.063629,297.979797 &#xA;&#x9;C220.881470,302.601288 226.352585,307.953644 232.404495,312.539520 &#xA;&#x9;C239.491013,317.909363 247.083328,322.611664 254.614166,328.058960 &#xA;&#x9;C254.518143,329.005096 254.264221,329.495758 254.010315,329.986450 &#xA;&#x9;C249.235168,330.989532 244.486542,332.173248 239.667984,332.880737 &#xA;&#x9;C238.301193,333.081451 236.456696,332.226990 235.304810,331.280243 &#xA;&#x9;C231.879044,328.464691 230.468658,328.713470 228.208496,332.662872 &#xA;&#x9;C227.477676,333.939880 226.122910,334.859802 224.707031,335.959167 &#xA;&#x9;C223.329132,335.182983 222.297745,334.390747 221.275726,333.142853 &#xA;&#x9;C220.556183,332.372894 219.827255,332.058594 219.098328,331.744293 &#xA;&#x9;C210.127518,323.719910 201.156708,315.695526 192.047836,307.365906 &#xA;z"></path>
<path fill="#61BF9F" opacity="1.000000" stroke="none" d="&#xA;M113.418427,227.389343 &#xA;&#x9;C114.313255,226.056580 115.078026,224.579788 116.161957,223.394974 &#xA;&#x9;C120.196342,218.985184 124.335602,214.671326 128.731812,210.154297 &#xA;&#x9;C135.572311,216.409546 142.116501,222.831985 148.949417,229.780304 &#xA;&#x9;C149.526321,230.526810 149.814514,230.747452 150.102692,230.968094 &#xA;&#x9;C150.435593,230.995728 150.698532,231.145889 150.961456,232.058563 &#xA;&#x9;C150.099014,238.991653 154.679962,239.318634 158.932983,240.000458 &#xA;&#x9;C159.849564,240.869553 160.766144,241.738632 161.821045,242.894150 &#xA;&#x9;C164.831757,252.646622 155.436523,249.945969 151.888489,253.286667 &#xA;&#x9;C151.109177,251.969086 150.332184,250.655457 149.152740,248.661392 &#xA;&#x9;C145.157394,253.387314 140.820450,253.105682 135.966339,250.170990 &#xA;&#x9;C135.050186,249.729202 134.513626,249.288315 134.064240,248.236237 &#xA;&#x9;C135.875824,241.747757 131.559509,243.294403 128.632111,243.134079 &#xA;&#x9;C127.132202,241.740952 125.632294,240.347824 124.010345,238.276932 &#xA;&#x9;C122.833298,236.769821 121.778282,235.940491 120.723267,235.111145 &#xA;&#x9;C118.876549,233.329422 117.029839,231.547714 115.016556,229.145538 &#xA;&#x9;C114.390442,228.143524 113.930901,227.761978 113.471359,227.380432 &#xA;&#x9;C113.471359,227.380432 113.434875,227.379333 113.418427,227.389343 &#xA;z"></path>
<path fill="#52AFA3" opacity="1.000000" stroke="none" d="&#xA;M182.192307,355.515442 &#xA;&#x9;C179.914322,357.522980 177.587143,358.992798 175.479065,360.728638 &#xA;&#x9;C172.227859,363.405731 164.586990,362.255768 160.360107,358.260956 &#xA;&#x9;C160.068832,359.027069 159.785965,359.771088 159.315491,360.734772 &#xA;&#x9;C156.495712,352.529480 153.863525,344.104553 151.487457,335.270386 &#xA;&#x9;C155.473541,333.012054 152.479233,331.875183 151.513916,330.115906 &#xA;&#x9;C150.557068,328.372040 150.233200,326.042877 150.432953,324.050812 &#xA;&#x9;C150.491074,323.471252 153.310699,322.765808 154.843369,322.812378 &#xA;&#x9;C159.444016,322.952240 164.034256,323.434906 168.677734,323.787506 &#xA;&#x9;C168.328384,320.796173 168.109818,318.924774 167.891266,317.053406 &#xA;&#x9;C174.831573,326.362427 179.274719,336.716553 180.746826,348.811096 &#xA;&#x9;C180.865463,349.926422 181.177719,350.463745 181.489990,351.001099 &#xA;&#x9;C181.740417,352.366364 181.990845,353.731659 182.192307,355.515442 &#xA;z"></path>
<path fill="#57B4A0" opacity="1.000000" stroke="none" d="&#xA;M167.833282,316.720215 &#xA;&#x9;C168.109818,318.924774 168.328384,320.796173 168.677734,323.787506 &#xA;&#x9;C164.034256,323.434906 159.444016,322.952240 154.843369,322.812378 &#xA;&#x9;C153.310699,322.765808 150.491074,323.471252 150.432953,324.050812 &#xA;&#x9;C150.233200,326.042877 150.557068,328.372040 151.513916,330.115906 &#xA;&#x9;C152.479233,331.875183 155.473541,333.012054 151.425522,334.916687 &#xA;&#x9;C145.066116,327.539398 139.153214,319.997040 132.940323,312.710480 &#xA;&#x9;C128.454254,307.449188 128.186783,299.649567 132.785660,295.122498 &#xA;&#x9;C137.648270,290.335846 145.638885,290.513214 150.513947,295.959839 &#xA;&#x9;C156.456894,302.599609 162.037811,309.563354 167.833282,316.720215 &#xA;z"></path>
<path fill="#65C0A1" opacity="1.000000" stroke="none" d="&#xA;M334.166565,181.212372 &#xA;&#x9;C330.961151,187.518982 327.855133,193.878723 324.520691,200.116364 &#xA;&#x9;C321.551636,205.670532 318.510376,211.202728 315.168182,216.536041 &#xA;&#x9;C311.875702,221.789993 304.515106,223.118912 298.787750,219.873703 &#xA;&#x9;C293.531891,216.895645 291.268005,210.243408 294.234253,204.779449 &#xA;&#x9;C298.577759,196.778442 303.368469,189.020172 308.356750,181.416885 &#xA;&#x9;C309.484009,190.731674 311.580872,193.298416 318.053192,191.753006 &#xA;&#x9;C320.634491,191.136673 323.399323,188.972168 324.910614,186.725449 &#xA;&#x9;C327.271057,183.216171 330.158295,181.505630 334.166565,181.212372 &#xA;z"></path>
<path fill="#73C997" opacity="1.000000" stroke="none" d="&#xA;M367.312317,124.801834 &#xA;&#x9;C363.365448,124.808090 359.248047,122.896919 357.597717,128.713654 &#xA;&#x9;C356.782776,131.585846 350.951965,132.612762 348.100616,130.625183 &#xA;&#x9;C345.338562,128.699890 340.865234,127.307030 344.837585,122.359238 &#xA;&#x9;C345.690308,121.297089 345.065582,119.048775 344.953461,116.993866 &#xA;&#x9;C346.653595,112.955856 348.310059,109.143135 350.438538,105.615189 &#xA;&#x9;C353.807556,100.031082 361.156006,98.121162 366.518158,101.135902 &#xA;&#x9;C372.642548,104.579193 374.826172,111.008537 371.819000,117.297630 &#xA;&#x9;C370.610352,119.825256 368.994873,122.158379 367.312317,124.801834 &#xA;z"></path>
<path fill="#67C39B" opacity="1.000000" stroke="none" d="&#xA;M334.142090,181.199783 &#xA;&#x9;C330.158295,181.505630 327.271057,183.216171 324.910614,186.725449 &#xA;&#x9;C323.399323,188.972168 320.634491,191.136673 318.053192,191.753006 &#xA;&#x9;C311.580872,193.298416 309.484009,190.731674 308.623688,181.235443 &#xA;&#x9;C308.502441,180.795563 308.543182,180.819122 308.866577,180.685699 &#xA;&#x9;C309.404297,179.966232 309.618591,179.380188 309.832886,178.794159 &#xA;&#x9;C309.832886,178.794159 309.876251,178.917679 310.083923,178.738708 &#xA;&#x9;C310.493958,177.947388 310.696289,177.335052 310.898621,176.722717 &#xA;&#x9;C312.866333,172.982239 314.834045,169.241760 317.048767,165.246857 &#xA;&#x9;C318.675934,165.330872 320.689148,165.206757 321.330750,166.084854 &#xA;&#x9;C324.789795,170.818710 326.291748,171.296082 331.072449,167.917709 &#xA;&#x9;C334.158722,165.736740 337.066254,163.320602 341.886475,164.594711 &#xA;&#x9;C340.878479,167.642776 339.948517,170.454865 339.018280,173.659546 &#xA;&#x9;C338.456329,175.207214 337.894653,176.362274 336.787292,177.825867 &#xA;&#x9;C335.544067,179.161224 334.846497,180.188049 334.148926,181.214874 &#xA;&#x9;C334.148926,181.214874 334.117584,181.187195 334.142090,181.199783 &#xA;z"></path>
<path fill="#0E2421" opacity="1.000000" stroke="none" d="&#xA;M238.353699,154.521240 &#xA;&#x9;C238.310272,167.344711 238.184860,179.707260 237.982193,192.532715 &#xA;&#x9;C237.270462,191.464432 236.147308,189.951691 236.088669,188.398758 &#xA;&#x9;C235.870377,182.618164 235.905121,176.822418 236.021545,171.035904 &#xA;&#x9;C236.287308,157.825378 236.897400,144.617249 236.913239,131.407593 &#xA;&#x9;C236.927322,119.679947 236.069061,107.951096 236.089462,96.223633 &#xA;&#x9;C236.103714,88.017815 236.949219,79.813446 237.641800,71.298340 &#xA;&#x9;C237.975372,85.014664 238.090607,99.041077 238.289185,113.528671 &#xA;&#x9;C238.338928,127.346672 238.305328,140.703506 238.353699,154.521240 &#xA;z"></path>
<path fill="#4C9D96" opacity="1.000000" stroke="none" d="&#xA;M299.236389,349.800232 &#xA;&#x9;C289.872162,346.334503 280.694977,342.795105 271.648529,338.948120 &#xA;&#x9;C269.324158,337.959656 267.412109,336.001678 265.149933,334.178223 &#xA;&#x9;C276.593628,338.605927 288.198059,343.344574 299.974670,348.350891 &#xA;&#x9;C299.921936,348.949799 299.696991,349.280975 299.236389,349.800232 &#xA;z"></path>
<path fill="#4C9D96" opacity="1.000000" stroke="none" d="&#xA;M315.141357,358.552429 &#xA;&#x9;C310.495209,358.665680 306.935425,356.588867 304.968140,351.723541 &#xA;&#x9;C308.303040,353.662445 311.646118,355.954620 315.141357,358.552429 &#xA;z"></path>
<path fill="#5BB89F" opacity="1.000000" stroke="none" d="&#xA;M158.794373,239.702744 &#xA;&#x9;C154.679962,239.318634 150.099014,238.991653 151.045944,232.275909 &#xA;&#x9;C153.592255,234.370514 156.123993,236.887772 158.794373,239.702744 &#xA;z"></path>
<path fill="#4EA7A8" opacity="1.000000" stroke="none" d="&#xA;M224.370758,363.654449 &#xA;&#x9;C226.169571,359.712646 229.751160,359.990082 233.701263,360.738434 &#xA;&#x9;C230.908920,361.866852 227.827667,362.762878 224.370758,363.654449 &#xA;z"></path>
<path fill="#5BB89F" opacity="1.000000" stroke="none" d="&#xA;M128.776031,243.441696 &#xA;&#x9;C131.559509,243.294403 135.875824,241.747757 133.989166,247.978394 &#xA;&#x9;C132.191269,246.804276 130.555618,245.276794 128.776031,243.441696 &#xA;z"></path>
<path fill="#4C9D96" opacity="1.000000" stroke="none" d="&#xA;M323.540710,333.752838 &#xA;&#x9;C322.981537,336.236328 322.156433,338.954987 321.078979,341.846405 &#xA;&#x9;C321.642700,339.342133 322.458740,336.665070 323.540710,333.752838 &#xA;z"></path>
<path fill="#5AB69C" opacity="1.000000" stroke="none" d="&#xA;M370.542389,209.711731 &#xA;&#x9;C370.604950,212.428299 369.898529,214.895752 365.896393,214.864059 &#xA;&#x9;C367.065857,213.172867 368.645569,211.511124 370.542389,209.711731 &#xA;z"></path>
<path fill="#4C9D96" opacity="1.000000" stroke="none" d="&#xA;M320.073395,344.292297 &#xA;&#x9;C320.308929,344.026062 320.693909,343.999084 320.887634,344.005432 &#xA;&#x9;C320.729889,345.751007 320.378448,347.490265 319.821747,349.619537 &#xA;&#x9;C319.370667,350.031677 319.124420,350.038116 318.877777,350.028870 &#xA;&#x9;C319.197815,348.205414 319.517853,346.381989 320.073395,344.292297 &#xA;z"></path>
<path fill="#51ABA0" opacity="1.000000" stroke="none" d="&#xA;M318.690369,350.373108 &#xA;&#x9;C319.124420,350.038116 319.370667,350.031677 319.801270,350.000732 &#xA;&#x9;C319.871765,350.945312 319.757477,351.898743 319.116058,352.925079 &#xA;&#x9;C318.588898,352.998016 318.131714,353.015045 318.131714,353.015045 &#xA;&#x9;C318.255432,352.249146 318.379211,351.483276 318.690369,350.373108 &#xA;z"></path>
<path fill="#4C9D96" opacity="1.000000" stroke="none" d="&#xA;M254.301331,330.121155 &#xA;&#x9;C254.264221,329.495758 254.518143,329.005096 254.883514,328.261292 &#xA;&#x9;C255.894394,328.491119 256.793854,328.974060 257.846558,329.729034 &#xA;&#x9;C256.863983,330.085968 255.728180,330.170898 254.301331,330.121155 &#xA;z"></path>
<path fill="#5AB69C" opacity="1.000000" stroke="none" d="&#xA;M384.270233,195.820511 &#xA;&#x9;C384.729553,196.492676 384.935577,197.249847 385.141602,198.007050 &#xA;&#x9;C384.470612,198.021683 383.799622,198.036316 382.930267,197.793945 &#xA;&#x9;C383.160248,196.993134 383.588593,196.449326 384.270233,195.820511 &#xA;z"></path>
<path fill="#4C9D96" opacity="1.000000" stroke="none" d="&#xA;M317.958557,353.265167 &#xA;&#x9;C318.131714,353.015045 318.588898,352.998016 318.818237,352.999207 &#xA;&#x9;C318.814178,354.185577 318.580811,355.370758 318.082703,356.808289 &#xA;&#x9;C317.807098,355.878845 317.796265,354.697083 317.958557,353.265167 &#xA;z"></path>
<path fill="#5BB89F" opacity="1.000000" stroke="none" d="&#xA;M120.872650,235.405640 &#xA;&#x9;C121.778282,235.940491 122.833298,236.769821 123.870720,238.002228 &#xA;&#x9;C122.909431,237.503571 121.965729,236.601852 120.872650,235.405640 &#xA;z"></path>
<path fill="#65C0A1" opacity="1.000000" stroke="none" d="&#xA;M334.467896,181.148773 &#xA;&#x9;C334.846497,180.188049 335.544067,179.161224 336.573975,178.071198 &#xA;&#x9;C336.199829,179.032867 335.493317,180.057770 334.467896,181.148773 &#xA;z"></path>
<path fill="#4C9D96" opacity="1.000000" stroke="none" d="&#xA;M264.060913,333.216614 &#xA;&#x9;C263.487183,333.206390 262.741913,332.985413 261.974243,332.444336 &#xA;&#x9;C262.597687,332.418121 263.243500,332.711975 264.060913,333.216614 &#xA;z"></path>
<path fill="#56B29F" opacity="1.000000" stroke="none" d="&#xA;M212.677231,294.790833 &#xA;&#x9;C211.844254,294.336578 210.924301,293.596832 209.970505,292.524384 &#xA;&#x9;C210.821182,292.962891 211.705719,293.734100 212.677231,294.790833 &#xA;z"></path>
<path fill="#52AEA4" opacity="1.000000" stroke="none" d="&#xA;M219.257141,331.989563 &#xA;&#x9;C219.827255,332.058594 220.556183,332.372894 221.097275,332.871704 &#xA;&#x9;C220.411606,332.782410 219.913773,332.508636 219.257141,331.989563 &#xA;z"></path>
<path fill="#5AB69C" opacity="1.000000" stroke="none" d="&#xA;M376.764404,203.258698 &#xA;&#x9;C376.310089,204.102127 375.568665,205.034454 374.489258,205.985687 &#xA;&#x9;C374.926605,205.118927 375.701965,204.233276 376.764404,203.258698 &#xA;z"></path>
<path fill="#4C9D96" opacity="1.000000" stroke="none" d="&#xA;M345.708221,300.138153 &#xA;&#x9;C345.408752,300.932587 344.812714,301.853821 343.843567,302.783630 &#xA;&#x9;C344.117584,301.949799 344.764618,301.107361 345.708221,300.138153 &#xA;z"></path>
<path fill="#4C9D96" opacity="1.000000" stroke="none" d="&#xA;M337.682068,309.054962 &#xA;&#x9;C337.458618,309.857239 336.959991,310.809998 336.101868,311.779694 &#xA;&#x9;C336.297211,310.932892 336.852051,310.069183 337.682068,309.054962 &#xA;z"></path>
<path fill="#5AB69C" opacity="1.000000" stroke="none" d="&#xA;M381.557007,198.654541 &#xA;&#x9;C381.202454,199.346222 380.557373,200.163727 379.561890,201.022186 &#xA;&#x9;C379.896484,200.302216 380.581482,199.541290 381.557007,198.654541 &#xA;z"></path>
<path fill="#4C9D96" opacity="1.000000" stroke="none" d="&#xA;M335.516418,311.879211 &#xA;&#x9;C335.447571,312.451843 335.110077,313.146057 334.473480,313.926849 &#xA;&#x9;C334.532166,313.342560 334.889954,312.671692 335.516418,311.879211 &#xA;z"></path>
<path fill="#4EA7A8" opacity="1.000000" stroke="none" d="&#xA;M181.532608,350.731689 &#xA;&#x9;C181.177719,350.463745 180.865463,349.926422 180.709167,349.223572 &#xA;&#x9;C181.101807,349.526123 181.338516,349.994202 181.532608,350.731689 &#xA;z"></path>
<path fill="#4C9D96" opacity="1.000000" stroke="none" d="&#xA;M325.581451,328.755981 &#xA;&#x9;C325.598846,329.305756 325.370514,330.022675 324.889862,330.882507 &#xA;&#x9;C324.870239,330.324677 325.102997,329.623871 325.581451,328.755981 &#xA;z"></path>
<path fill="#4C9D96" opacity="1.000000" stroke="none" d="&#xA;M333.561768,314.735840 &#xA;&#x9;C333.491791,315.324280 333.153961,316.066925 332.507935,316.911957 &#xA;&#x9;C332.564484,316.306274 332.929199,315.598175 333.561768,314.735840 &#xA;z"></path>
<path fill="#56B29F" opacity="1.000000" stroke="none" d="&#xA;M189.944519,305.345337 &#xA;&#x9;C190.502823,305.520599 191.169189,305.983215 191.891113,306.771240 &#xA;&#x9;C191.315308,306.608643 190.683945,306.120667 189.944519,305.345337 &#xA;z"></path>
<path fill="#4C9D96" opacity="1.000000" stroke="none" d="&#xA;M317.486450,358.643829 &#xA;&#x9;C317.239838,358.939331 316.692902,359.355072 316.066437,359.508575 &#xA;&#x9;C316.386627,359.085571 316.786407,358.924835 317.486450,358.643829 &#xA;z"></path>
<path fill="#67BC97" opacity="1.000000" stroke="none" d="&#xA;M239.781158,64.329559 &#xA;&#x9;C239.804871,64.947746 239.570038,65.753792 239.074707,66.747757 &#xA;&#x9;C239.050354,66.129578 239.286484,65.323502 239.781158,64.329559 &#xA;z"></path>
<path fill="#65C0A1" opacity="1.000000" stroke="none" d="&#xA;M310.638000,176.921555 &#xA;&#x9;C310.696289,177.335052 310.493958,177.947388 310.020142,178.753326 &#xA;&#x9;C309.958252,178.338104 310.167847,177.729248 310.638000,176.921555 &#xA;z"></path>
<path fill="#4C9D96" opacity="1.000000" stroke="none" d="&#xA;M326.777802,326.234344 &#xA;&#x9;C326.820190,326.604828 326.606964,327.125763 326.170990,327.828766 &#xA;&#x9;C326.139526,327.468842 326.330841,326.926819 326.777802,326.234344 &#xA;z"></path>
<path fill="#66C29E" opacity="1.000000" stroke="none" d="&#xA;M113.524017,227.682373 &#xA;&#x9;C113.930901,227.761978 114.390442,228.143524 114.895676,228.845947 &#xA;&#x9;C114.486473,228.772644 114.031578,228.378479 113.524017,227.682373 &#xA;z"></path>
<path fill="#65C0A1" opacity="1.000000" stroke="none" d="&#xA;M309.573151,178.966156 &#xA;&#x9;C309.618591,179.380188 309.404297,179.966232 308.889771,180.687927 &#xA;&#x9;C308.830841,180.261765 309.072144,179.699951 309.573151,178.966156 &#xA;z"></path>
<path fill="#67BC97" opacity="1.000000" stroke="none" d="&#xA;M238.140656,70.268036 &#xA;&#x9;C238.486954,70.217407 238.568787,70.481949 238.339111,70.917542 &#xA;&#x9;C238.184204,70.862450 238.133728,70.693977 238.140656,70.268036 &#xA;z"></path>
<path fill="#67BC97" opacity="1.000000" stroke="none" d="&#xA;M261.820068,70.735138 &#xA;&#x9;C261.477081,70.772591 261.406921,70.527245 261.650513,70.135010 &#xA;&#x9;C261.758392,70.039581 261.887054,70.503792 261.820068,70.735138 &#xA;z"></path>
<path fill="#5BB89F" opacity="1.000000" stroke="none" d="&#xA;M149.986664,230.708572 &#xA;&#x9;C149.814514,230.747452 149.526321,230.526810 149.088303,230.073425 &#xA;&#x9;C149.249191,230.043472 149.559906,230.246262 149.986664,230.708572 &#xA;z"></path>
<path fill="#51ABA0" opacity="1.000000" stroke="none" d="&#xA;M340.890686,360.731445 &#xA;&#x9;C340.547577,360.730774 340.506927,360.477905 340.801880,360.111481 &#xA;&#x9;C340.918396,360.022614 340.974091,360.503967 340.890686,360.731445 &#xA;z"></path>
</svg>